{"glyphs":{"0":{"ha":631,"x_min":0,"x_max":538,"o":"m 0 563 l 78 563 l 78 485 l 0 485 l 0 563 m 92 563 l 169 563 l 169 485 l 92 485 l 92 563 m 368 563 l 446 563 l 446 485 l 368 485 l 368 563 m 460 563 l 538 563 l 538 485 l 460 485 l 460 563 m 0 471 l 78 471 l 78 393 l 0 393 l 0 471 m 92 471 l 169 471 l 169 393 l 92 393 l 92 471 m 368 471 l 446 471 l 446 393 l 368 393 l 368 471 m 460 471 l 538 471 l 538 393 l 460 393 l 460 471 m 92 379 l 169 379 l 169 301 l 92 301 l 92 379 m 183 379 l 261 379 l 261 301 l 183 301 l 183 379 m 275 379 l 353 379 l 353 301 l 275 301 l 275 379 m 368 379 l 446 379 l 446 301 l 368 301 l 368 379 m 92 931 l 169 931 l 169 853 l 92 853 l 92 931 m 183 931 l 261 931 l 261 853 l 183 853 l 183 931 m 275 931 l 353 931 l 353 853 l 275 853 l 275 931 m 368 931 l 446 931 l 446 853 l 368 853 l 368 931 m 0 839 l 78 839 l 78 761 l 0 761 l 0 839 m 92 839 l 169 839 l 169 761 l 92 761 l 92 839 m 368 839 l 446 839 l 446 761 l 368 761 l 368 839 m 460 839 l 538 839 l 538 761 l 460 761 l 460 839 m 0 747 l 78 747 l 78 669 l 0 669 l 0 747 m 92 747 l 169 747 l 169 669 l 92 669 l 92 747 m 368 747 l 446 747 l 446 669 l 368 669 l 368 747 m 460 747 l 538 747 l 538 669 l 460 669 l 460 747 m 0 656 l 78 656 l 78 578 l 0 578 l 0 656 m 92 656 l 169 656 l 169 578 l 92 578 l 92 656 m 368 656 l 446 656 l 446 578 l 368 578 l 368 656 m 460 656 l 538 656 l 538 578 l 460 578 l 460 656 z "},"1":{"ha":628,"x_min":0,"x_max":538,"o":"m 183 563 l 261 563 l 261 485 l 183 485 l 183 563 m 275 563 l 353 563 l 353 485 l 275 485 l 275 563 m 183 471 l 261 471 l 261 393 l 183 393 l 183 471 m 275 471 l 353 471 l 353 393 l 275 393 l 275 471 m 0 379 l 78 379 l 78 301 l 0 301 l 0 379 m 92 379 l 169 379 l 169 301 l 92 301 l 92 379 m 183 379 l 261 379 l 261 301 l 183 301 l 183 379 m 275 379 l 353 379 l 353 301 l 275 301 l 275 379 m 368 379 l 446 379 l 446 301 l 368 301 l 368 379 m 460 379 l 538 379 l 538 301 l 460 301 l 460 379 m 183 931 l 261 931 l 261 853 l 183 853 l 183 931 m 275 931 l 353 931 l 353 853 l 275 853 l 275 931 m 92 839 l 169 839 l 169 761 l 92 761 l 92 839 m 183 839 l 261 839 l 261 761 l 183 761 l 183 839 m 275 839 l 353 839 l 353 761 l 275 761 l 275 839 m 183 747 l 261 747 l 261 669 l 183 669 l 183 747 m 275 747 l 353 747 l 353 669 l 275 669 l 275 747 m 183 656 l 261 656 l 261 578 l 183 578 l 183 656 m 275 656 l 353 656 l 353 578 l 275 578 l 275 656 z "},"2":{"ha":722,"x_min":0,"x_max":629,"o":"m 92 563 l 169 563 l 169 485 l 92 485 l 92 563 m 183 563 l 261 563 l 261 485 l 183 485 l 183 563 m 0 471 l 78 471 l 78 393 l 0 393 l 0 471 m 92 471 l 169 471 l 169 393 l 92 393 l 92 471 m 0 379 l 78 379 l 78 301 l 0 301 l 0 379 m 92 379 l 169 379 l 169 301 l 92 301 l 92 379 m 183 379 l 261 379 l 261 301 l 183 301 l 183 379 m 275 379 l 353 379 l 353 301 l 275 301 l 275 379 m 368 379 l 446 379 l 446 301 l 368 301 l 368 379 m 460 379 l 538 379 l 538 301 l 460 301 l 460 379 m 551 379 l 629 379 l 629 301 l 551 301 l 551 379 m 92 931 l 169 931 l 169 853 l 92 853 l 92 931 m 183 931 l 261 931 l 261 853 l 183 853 l 183 931 m 275 931 l 353 931 l 353 853 l 275 853 l 275 931 m 368 931 l 446 931 l 446 853 l 368 853 l 368 931 m 460 931 l 538 931 l 538 853 l 460 853 l 460 931 m 0 839 l 78 839 l 78 761 l 0 761 l 0 839 m 92 839 l 169 839 l 169 761 l 92 761 l 92 839 m 460 839 l 538 839 l 538 761 l 460 761 l 460 839 m 551 839 l 629 839 l 629 761 l 551 761 l 551 839 m 368 747 l 446 747 l 446 669 l 368 669 l 368 747 m 460 747 l 538 747 l 538 669 l 460 669 l 460 747 m 183 656 l 261 656 l 261 578 l 183 578 l 183 656 m 275 656 l 353 656 l 353 578 l 275 578 l 275 656 m 368 656 l 446 656 l 446 578 l 368 578 l 368 656 z "},"3":{"ha":722,"x_min":0,"x_max":629,"o":"m 460 563 l 538 563 l 538 485 l 460 485 l 460 563 m 551 563 l 629 563 l 629 485 l 551 485 l 551 563 m 0 471 l 78 471 l 78 393 l 0 393 l 0 471 m 92 471 l 169 471 l 169 393 l 92 393 l 92 471 m 460 471 l 538 471 l 538 393 l 460 393 l 460 471 m 551 471 l 629 471 l 629 393 l 551 393 l 551 471 m 92 379 l 169 379 l 169 301 l 92 301 l 92 379 m 183 379 l 261 379 l 261 301 l 183 301 l 183 379 m 275 379 l 353 379 l 353 301 l 275 301 l 275 379 m 368 379 l 446 379 l 446 301 l 368 301 l 368 379 m 460 379 l 538 379 l 538 301 l 460 301 l 460 379 m 92 931 l 169 931 l 169 853 l 92 853 l 92 931 m 183 931 l 261 931 l 261 853 l 183 853 l 183 931 m 275 931 l 353 931 l 353 853 l 275 853 l 275 931 m 368 931 l 446 931 l 446 853 l 368 853 l 368 931 m 460 931 l 538 931 l 538 853 l 460 853 l 460 931 m 0 839 l 78 839 l 78 761 l 0 761 l 0 839 m 92 839 l 169 839 l 169 761 l 92 761 l 92 839 m 460 839 l 538 839 l 538 761 l 460 761 l 460 839 m 551 839 l 629 839 l 629 761 l 551 761 l 551 839 m 460 747 l 538 747 l 538 669 l 460 669 l 460 747 m 551 747 l 629 747 l 629 669 l 551 669 l 551 747 m 275 656 l 353 656 l 353 578 l 275 578 l 275 656 m 368 656 l 446 656 l 446 578 l 368 578 l 368 656 m 460 656 l 538 656 l 538 578 l 460 578 l 460 656 z "},"4":{"ha":722,"x_min":0,"x_max":629,"o":"m 0 563 l 78 563 l 78 485 l 0 485 l 0 563 m 92 563 l 169 563 l 169 485 l 92 485 l 92 563 m 183 563 l 261 563 l 261 485 l 183 485 l 183 563 m 275 563 l 353 563 l 353 485 l 275 485 l 275 563 m 368 563 l 446 563 l 446 485 l 368 485 l 368 563 m 460 563 l 538 563 l 538 485 l 460 485 l 460 563 m 551 563 l 629 563 l 629 485 l 551 485 l 551 563 m 368 471 l 446 471 l 446 393 l 368 393 l 368 471 m 460 471 l 538 471 l 538 393 l 460 393 l 460 471 m 368 379 l 446 379 l 446 301 l 368 301 l 368 379 m 460 379 l 538 379 l 538 301 l 460 301 l 460 379 m 275 931 l 353 931 l 353 853 l 275 853 l 275 931 m 368 931 l 446 931 l 446 853 l 368 853 l 368 931 m 460 931 l 538 931 l 538 853 l 460 853 l 460 931 m 183 839 l 261 839 l 261 761 l 183 761 l 183 839 m 275 839 l 353 839 l 353 761 l 275 761 l 275 839 m 368 839 l 446 839 l 446 761 l 368 761 l 368 839 m 460 839 l 538 839 l 538 761 l 460 761 l 460 839 m 92 747 l 169 747 l 169 669 l 92 669 l 92 747 m 183 747 l 261 747 l 261 669 l 183 669 l 183 747 m 368 747 l 446 747 l 446 669 l 368 669 l 368 747 m 460 747 l 538 747 l 538 669 l 460 669 l 460 747 m 0 656 l 78 656 l 78 578 l 0 578 l 0 656 m 92 656 l 169 656 l 169 578 l 92 578 l 92 656 m 368 656 l 446 656 l 446 578 l 368 578 l 368 656 m 460 656 l 538 656 l 538 578 l 460 578 l 460 656 z "},"5":{"ha":722,"x_min":0,"x_max":629,"o":"m 460 563 l 538 563 l 538 485 l 460 485 l 460 563 m 551 563 l 629 563 l 629 485 l 551 485 l 551 563 m 0 471 l 78 471 l 78 393 l 0 393 l 0 471 m 92 471 l 169 471 l 169 393 l 92 393 l 92 471 m 460 471 l 538 471 l 538 393 l 460 393 l 460 471 m 551 471 l 629 471 l 629 393 l 551 393 l 551 471 m 92 379 l 169 379 l 169 301 l 92 301 l 92 379 m 183 379 l 261 379 l 261 301 l 183 301 l 183 379 m 275 379 l 353 379 l 353 301 l 275 301 l 275 379 m 368 379 l 446 379 l 446 301 l 368 301 l 368 379 m 460 379 l 538 379 l 538 301 l 460 301 l 460 379 m 0 931 l 78 931 l 78 853 l 0 853 l 0 931 m 92 931 l 169 931 l 169 853 l 92 853 l 92 931 m 183 931 l 261 931 l 261 853 l 183 853 l 183 931 m 275 931 l 353 931 l 353 853 l 275 853 l 275 931 m 368 931 l 446 931 l 446 853 l 368 853 l 368 931 m 460 931 l 538 931 l 538 853 l 460 853 l 460 931 m 0 839 l 78 839 l 78 761 l 0 761 l 0 839 m 92 839 l 169 839 l 169 761 l 92 761 l 92 839 m 0 747 l 78 747 l 78 669 l 0 669 l 0 747 m 92 747 l 169 747 l 169 669 l 92 669 l 92 747 m 183 747 l 261 747 l 261 669 l 183 669 l 183 747 m 275 747 l 353 747 l 353 669 l 275 669 l 275 747 m 368 747 l 446 747 l 446 669 l 368 669 l 368 747 m 460 747 l 538 747 l 538 669 l 460 669 l 460 747 m 460 656 l 538 656 l 538 578 l 460 578 l 460 656 m 551 656 l 629 656 l 629 578 l 551 578 l 551 656 z "},"6":{"ha":722,"x_min":0,"x_max":629,"o":"m 0 563 l 78 563 l 78 485 l 0 485 l 0 563 m 92 563 l 169 563 l 169 485 l 92 485 l 92 563 m 460 563 l 538 563 l 538 485 l 460 485 l 460 563 m 551 563 l 629 563 l 629 485 l 551 485 l 551 563 m 0 471 l 78 471 l 78 393 l 0 393 l 0 471 m 92 471 l 169 471 l 169 393 l 92 393 l 92 471 m 460 471 l 538 471 l 538 393 l 460 393 l 460 471 m 551 471 l 629 471 l 629 393 l 551 393 l 551 471 m 92 379 l 169 379 l 169 301 l 92 301 l 92 379 m 183 379 l 261 379 l 261 301 l 183 301 l 183 379 m 275 379 l 353 379 l 353 301 l 275 301 l 275 379 m 368 379 l 446 379 l 446 301 l 368 301 l 368 379 m 460 379 l 538 379 l 538 301 l 460 301 l 460 379 m 92 931 l 169 931 l 169 853 l 92 853 l 92 931 m 183 931 l 261 931 l 261 853 l 183 853 l 183 931 m 275 931 l 353 931 l 353 853 l 275 853 l 275 931 m 368 931 l 446 931 l 446 853 l 368 853 l 368 931 m 460 931 l 538 931 l 538 853 l 460 853 l 460 931 m 0 839 l 78 839 l 78 761 l 0 761 l 0 839 m 92 839 l 169 839 l 169 761 l 92 761 l 92 839 m 460 839 l 538 839 l 538 761 l 460 761 l 460 839 m 551 839 l 629 839 l 629 761 l 551 761 l 551 839 m 0 747 l 78 747 l 78 669 l 0 669 l 0 747 m 92 747 l 169 747 l 169 669 l 92 669 l 92 747 m 0 656 l 78 656 l 78 578 l 0 578 l 0 656 m 92 656 l 169 656 l 169 578 l 92 578 l 92 656 m 183 656 l 261 656 l 261 578 l 183 578 l 183 656 m 275 656 l 353 656 l 353 578 l 275 578 l 275 656 m 368 656 l 446 656 l 446 578 l 368 578 l 368 656 m 460 656 l 538 656 l 538 578 l 460 578 l 460 656 z "},"7":{"ha":722,"x_min":0,"x_max":629,"o":"m 183 563 l 261 563 l 261 485 l 183 485 l 183 563 m 275 563 l 353 563 l 353 485 l 275 485 l 275 563 m 183 471 l 261 471 l 261 393 l 183 393 l 183 471 m 275 471 l 353 471 l 353 393 l 275 393 l 275 471 m 183 379 l 261 379 l 261 301 l 183 301 l 183 379 m 275 379 l 353 379 l 353 301 l 275 301 l 275 379 m 0 931 l 78 931 l 78 853 l 0 853 l 0 931 m 92 931 l 169 931 l 169 853 l 92 853 l 92 931 m 183 931 l 261 931 l 261 853 l 183 853 l 183 931 m 275 931 l 353 931 l 353 853 l 275 853 l 275 931 m 368 931 l 446 931 l 446 853 l 368 853 l 368 931 m 460 931 l 538 931 l 538 853 l 460 853 l 460 931 m 551 931 l 629 931 l 629 853 l 551 853 l 551 931 m 368 839 l 446 839 l 446 761 l 368 761 l 368 839 m 460 839 l 538 839 l 538 761 l 460 761 l 460 839 m 275 747 l 353 747 l 353 669 l 275 669 l 275 747 m 368 747 l 446 747 l 446 669 l 368 669 l 368 747 m 183 656 l 261 656 l 261 578 l 183 578 l 183 656 m 275 656 l 353 656 l 353 578 l 275 578 l 275 656 z "},"8":{"ha":722,"x_min":0,"x_max":629,"o":"m 0 563 l 78 563 l 78 485 l 0 485 l 0 563 m 92 563 l 169 563 l 169 485 l 92 485 l 92 563 m 460 563 l 538 563 l 538 485 l 460 485 l 460 563 m 551 563 l 629 563 l 629 485 l 551 485 l 551 563 m 0 471 l 78 471 l 78 393 l 0 393 l 0 471 m 92 471 l 169 471 l 169 393 l 92 393 l 92 471 m 460 471 l 538 471 l 538 393 l 460 393 l 460 471 m 551 471 l 629 471 l 629 393 l 551 393 l 551 471 m 92 379 l 169 379 l 169 301 l 92 301 l 92 379 m 183 379 l 261 379 l 261 301 l 183 301 l 183 379 m 275 379 l 353 379 l 353 301 l 275 301 l 275 379 m 368 379 l 446 379 l 446 301 l 368 301 l 368 379 m 460 379 l 538 379 l 538 301 l 460 301 l 460 379 m 92 931 l 169 931 l 169 853 l 92 853 l 92 931 m 183 931 l 261 931 l 261 853 l 183 853 l 183 931 m 275 931 l 353 931 l 353 853 l 275 853 l 275 931 m 368 931 l 446 931 l 446 853 l 368 853 l 368 931 m 460 931 l 538 931 l 538 853 l 460 853 l 460 931 m 0 839 l 78 839 l 78 761 l 0 761 l 0 839 m 92 839 l 169 839 l 169 761 l 92 761 l 92 839 m 460 839 l 538 839 l 538 761 l 460 761 l 460 839 m 551 839 l 629 839 l 629 761 l 551 761 l 551 839 m 0 747 l 78 747 l 78 669 l 0 669 l 0 747 m 92 747 l 169 747 l 169 669 l 92 669 l 92 747 m 460 747 l 538 747 l 538 669 l 460 669 l 460 747 m 551 747 l 629 747 l 629 669 l 551 669 l 551 747 m 92 656 l 169 656 l 169 578 l 92 578 l 92 656 m 183 656 l 261 656 l 261 578 l 183 578 l 183 656 m 275 656 l 353 656 l 353 578 l 275 578 l 275 656 m 368 656 l 446 656 l 446 578 l 368 578 l 368 656 m 460 656 l 538 656 l 538 578 l 460 578 l 460 656 z "},"9":{"ha":722,"x_min":0,"x_max":629,"o":"m 460 563 l 538 563 l 538 485 l 460 485 l 460 563 m 551 563 l 629 563 l 629 485 l 551 485 l 551 563 m 368 471 l 446 471 l 446 393 l 368 393 l 368 471 m 460 471 l 538 471 l 538 393 l 460 393 l 460 471 m 183 379 l 261 379 l 261 301 l 183 301 l 183 379 m 275 379 l 353 379 l 353 301 l 275 301 l 275 379 m 368 379 l 446 379 l 446 301 l 368 301 l 368 379 m 92 931 l 169 931 l 169 853 l 92 853 l 92 931 m 183 931 l 261 931 l 261 853 l 183 853 l 183 931 m 275 931 l 353 931 l 353 853 l 275 853 l 275 931 m 368 931 l 446 931 l 446 853 l 368 853 l 368 931 m 460 931 l 538 931 l 538 853 l 460 853 l 460 931 m 0 839 l 78 839 l 78 761 l 0 761 l 0 839 m 92 839 l 169 839 l 169 761 l 92 761 l 92 839 m 460 839 l 538 839 l 538 761 l 460 761 l 460 839 m 551 839 l 629 839 l 629 761 l 551 761 l 551 839 m 0 747 l 78 747 l 78 669 l 0 669 l 0 747 m 92 747 l 169 747 l 169 669 l 92 669 l 92 747 m 460 747 l 538 747 l 538 669 l 460 669 l 460 747 m 551 747 l 629 747 l 629 669 l 551 669 l 551 747 m 92 656 l 169 656 l 169 578 l 92 578 l 92 656 m 183 656 l 261 656 l 261 578 l 183 578 l 183 656 m 275 656 l 353 656 l 353 578 l 275 578 l 275 656 m 368 656 l 446 656 l 446 578 l 368 578 l 368 656 m 460 656 l 538 656 l 538 578 l 460 578 l 460 656 m 551 656 l 629 656 l 629 578 l 551 578 l 551 656 z "}," ":{"ha":722,"x_min":0,"x_max":0,"o":""},"!":{"ha":722,"x_min":0,"x_max":629,"o":"m 92 563 l 169 563 l 169 485 l 92 485 l 92 563 m 183 563 l 261 563 l 261 485 l 183 485 l 183 563 m 0 379 l 78 379 l 78 301 l 0 301 l 0 379 m 92 379 l 169 379 l 169 301 l 92 301 l 92 379 m 460 931 l 538 931 l 538 853 l 460 853 l 460 931 m 551 931 l 629 931 l 629 853 l 551 853 l 551 931 m 368 839 l 446 839 l 446 761 l 368 761 l 368 839 m 460 839 l 538 839 l 538 761 l 460 761 l 460 839 m 551 839 l 629 839 l 629 761 l 551 761 l 551 839 m 275 747 l 353 747 l 353 669 l 275 669 l 275 747 m 368 747 l 446 747 l 446 669 l 368 669 l 368 747 m 460 747 l 538 747 l 538 669 l 460 669 l 460 747 m 551 747 l 629 747 l 629 669 l 551 669 l 551 747 m 183 656 l 261 656 l 261 578 l 183 578 l 183 656 m 275 656 l 353 656 l 353 578 l 275 578 l 275 656 m 368 656 l 446 656 l 446 578 l 368 578 l 368 656 z "},"\"":{"ha":722,"x_min":0,"x_max":446,"o":"m 0 931 l 78 931 l 78 853 l 0 853 l 0 931 m 92 931 l 169 931 l 169 853 l 92 853 l 92 931 m 275 931 l 353 931 l 353 853 l 275 853 l 275 931 m 368 931 l 446 931 l 446 853 l 368 853 l 368 931 m 0 839 l 78 839 l 78 761 l 0 761 l 0 839 m 92 839 l 169 839 l 169 761 l 92 761 l 92 839 m 275 839 l 353 839 l 353 761 l 275 761 l 275 839 m 368 839 l 446 839 l 446 761 l 368 761 l 368 839 m 92 747 l 169 747 l 169 669 l 92 669 l 92 747 m 368 747 l 446 747 l 446 669 l 368 669 l 368 747 z "},"#":{"ha":722,"x_min":0,"x_max":629,"o":"m 0 563 l 78 563 l 78 485 l 0 485 l 0 563 m 92 563 l 169 563 l 169 485 l 92 485 l 92 563 m 183 563 l 261 563 l 261 485 l 183 485 l 183 563 m 275 563 l 353 563 l 353 485 l 275 485 l 275 563 m 368 563 l 446 563 l 446 485 l 368 485 l 368 563 m 460 563 l 538 563 l 538 485 l 460 485 l 460 563 m 551 563 l 629 563 l 629 485 l 551 485 l 551 563 m 92 471 l 169 471 l 169 393 l 92 393 l 92 471 m 183 471 l 261 471 l 261 393 l 183 393 l 183 471 m 368 471 l 446 471 l 446 393 l 368 393 l 368 471 m 460 471 l 538 471 l 538 393 l 460 393 l 460 471 m 92 379 l 169 379 l 169 301 l 92 301 l 92 379 m 183 379 l 261 379 l 261 301 l 183 301 l 183 379 m 368 379 l 446 379 l 446 301 l 368 301 l 368 379 m 460 379 l 538 379 l 538 301 l 460 301 l 460 379 m 92 931 l 169 931 l 169 853 l 92 853 l 92 931 m 183 931 l 261 931 l 261 853 l 183 853 l 183 931 m 368 931 l 446 931 l 446 853 l 368 853 l 368 931 m 460 931 l 538 931 l 538 853 l 460 853 l 460 931 m 92 839 l 169 839 l 169 761 l 92 761 l 92 839 m 183 839 l 261 839 l 261 761 l 183 761 l 183 839 m 368 839 l 446 839 l 446 761 l 368 761 l 368 839 m 460 839 l 538 839 l 538 761 l 460 761 l 460 839 m 0 747 l 78 747 l 78 669 l 0 669 l 0 747 m 92 747 l 169 747 l 169 669 l 92 669 l 92 747 m 183 747 l 261 747 l 261 669 l 183 669 l 183 747 m 275 747 l 353 747 l 353 669 l 275 669 l 275 747 m 368 747 l 446 747 l 446 669 l 368 669 l 368 747 m 460 747 l 538 747 l 538 669 l 460 669 l 460 747 m 551 747 l 629 747 l 629 669 l 551 669 l 551 747 m 92 656 l 169 656 l 169 578 l 92 578 l 92 656 m 183 656 l 261 656 l 261 578 l 183 578 l 183 656 m 368 656 l 446 656 l 446 578 l 368 578 l 368 656 m 460 656 l 538 656 l 538 578 l 460 578 l 460 656 z "},"$":{"ha":722,"x_min":0,"x_max":353,"o":"m 275 563 l 353 563 l 353 485 l 275 485 l 275 563 m 0 471 l 78 471 l 78 393 l 0 393 l 0 471 m 92 471 l 169 471 l 169 393 l 92 393 l 92 471 m 183 471 l 261 471 l 261 393 l 183 393 l 183 471 m 183 379 l 261 379 l 261 301 l 183 301 l 183 379 m 183 931 l 261 931 l 261 853 l 183 853 l 183 931 m 92 839 l 169 839 l 169 761 l 92 761 l 92 839 m 183 839 l 261 839 l 261 761 l 183 761 l 183 839 m 275 839 l 353 839 l 353 761 l 275 761 l 275 839 m 0 747 l 78 747 l 78 669 l 0 669 l 0 747 m 0 656 l 78 656 l 78 578 l 0 578 l 0 656 m 92 656 l 169 656 l 169 578 l 92 578 l 92 656 m 183 656 l 261 656 l 261 578 l 183 578 l 183 656 z "},"%":{"ha":722,"x_min":0,"x_max":538,"o":"m 92 563 l 169 563 l 169 485 l 92 485 l 92 563 m 183 563 l 261 563 l 261 485 l 183 485 l 183 563 m 368 563 l 446 563 l 446 485 l 368 485 l 368 563 m 460 563 l 538 563 l 538 485 l 460 485 l 460 563 m 368 471 l 446 471 l 446 393 l 368 393 l 368 471 m 460 471 l 538 471 l 538 393 l 460 393 l 460 471 m 0 839 l 78 839 l 78 761 l 0 761 l 0 839 m 92 839 l 169 839 l 169 761 l 92 761 l 92 839 m 368 839 l 446 839 l 446 761 l 368 761 l 368 839 m 460 839 l 538 839 l 538 761 l 460 761 l 460 839 m 0 747 l 78 747 l 78 669 l 0 669 l 0 747 m 92 747 l 169 747 l 169 669 l 92 669 l 92 747 m 275 747 l 353 747 l 353 669 l 275 669 l 275 747 m 368 747 l 446 747 l 446 669 l 368 669 l 368 747 m 183 656 l 261 656 l 261 578 l 183 578 l 183 656 m 275 656 l 353 656 l 353 578 l 275 578 l 275 656 m 0 471 l 78 471 l 78 393 l 0 393 l 0 471 m 92 471 l 169 471 l 169 393 l 92 393 l 92 471 z "},"&":{"ha":583,"x_min":0,"x_max":446,"o":"m 0 563 l 78 563 l 78 485 l 0 485 l 0 563 m 183 563 l 261 563 l 261 485 l 183 485 l 183 563 m 368 563 l 446 563 l 446 485 l 368 485 l 368 563 m 0 471 l 78 471 l 78 393 l 0 393 l 0 471 m 275 471 l 353 471 l 353 393 l 275 393 l 275 471 m 92 379 l 169 379 l 169 301 l 92 301 l 92 379 m 183 379 l 261 379 l 261 301 l 183 301 l 183 379 m 368 379 l 446 379 l 446 301 l 368 301 l 368 379 m 92 931 l 169 931 l 169 853 l 92 853 l 92 931 m 183 931 l 261 931 l 261 853 l 183 853 l 183 931 m 0 839 l 78 839 l 78 761 l 0 761 l 0 839 m 275 839 l 353 839 l 353 761 l 275 761 l 275 839 m 0 747 l 78 747 l 78 669 l 0 669 l 0 747 m 183 747 l 261 747 l 261 669 l 183 669 l 183 747 m 92 656 l 169 656 l 169 578 l 92 578 l 92 656 z "},"'":{"ha":482,"x_min":0,"x_max":169,"o":"m 0 931 l 78 931 l 78 853 l 0 853 l 0 931 m 92 931 l 169 931 l 169 853 l 92 853 l 92 931 m 0 839 l 78 839 l 78 761 l 0 761 l 0 839 m 92 839 l 169 839 l 169 761 l 92 761 l 92 839 m 92 747 l 169 747 l 169 669 l 92 669 l 92 747 z "},"(":{"ha":722,"x_min":0,"x_max":353,"o":"m 0 563 l 78 563 l 78 485 l 0 485 l 0 563 m 92 563 l 169 563 l 169 485 l 92 485 l 92 563 m 92 471 l 169 471 l 169 393 l 92 393 l 92 471 m 183 471 l 261 471 l 261 393 l 183 393 l 183 471 m 183 379 l 261 379 l 261 301 l 183 301 l 183 379 m 275 379 l 353 379 l 353 301 l 275 301 l 275 379 m 183 931 l 261 931 l 261 853 l 183 853 l 183 931 m 275 931 l 353 931 l 353 853 l 275 853 l 275 931 m 92 839 l 169 839 l 169 761 l 92 761 l 92 839 m 183 839 l 261 839 l 261 761 l 183 761 l 183 839 m 0 747 l 78 747 l 78 669 l 0 669 l 0 747 m 92 747 l 169 747 l 169 669 l 92 669 l 92 747 m 0 656 l 78 656 l 78 578 l 0 578 l 0 656 m 92 656 l 169 656 l 169 578 l 92 578 l 92 656 z "},")":{"ha":722,"x_min":0,"x_max":353,"o":"m 183 563 l 261 563 l 261 485 l 183 485 l 183 563 m 275 563 l 353 563 l 353 485 l 275 485 l 275 563 m 92 471 l 169 471 l 169 393 l 92 393 l 92 471 m 183 471 l 261 471 l 261 393 l 183 393 l 183 471 m 0 379 l 78 379 l 78 301 l 0 301 l 0 379 m 92 379 l 169 379 l 169 301 l 92 301 l 92 379 m 0 931 l 78 931 l 78 853 l 0 853 l 0 931 m 92 931 l 169 931 l 169 853 l 92 853 l 92 931 m 92 839 l 169 839 l 169 761 l 92 761 l 92 839 m 183 839 l 261 839 l 261 761 l 183 761 l 183 839 m 183 747 l 261 747 l 261 669 l 183 669 l 183 747 m 275 747 l 353 747 l 353 669 l 275 669 l 275 747 m 183 656 l 261 656 l 261 578 l 183 578 l 183 656 m 275 656 l 353 656 l 353 578 l 275 578 l 275 656 z "},"*":{"ha":722,"x_min":92,"x_max":353,"o":"m 92 563 l 169 563 l 169 485 l 92 485 l 92 563 m 275 563 l 353 563 l 353 485 l 275 485 l 275 563 m 92 747 l 169 747 l 169 669 l 92 669 l 92 747 m 275 747 l 353 747 l 353 669 l 275 669 l 275 747 m 183 656 l 261 656 l 261 578 l 183 578 l 183 656 z "},"+":{"ha":628,"x_min":0,"x_max":538,"o":"m 183 563 l 261 563 l 261 485 l 183 485 l 183 563 m 275 563 l 353 563 l 353 485 l 275 485 l 275 563 m 183 471 l 261 471 l 261 393 l 183 393 l 183 471 m 275 471 l 353 471 l 353 393 l 275 393 l 275 471 m 183 839 l 261 839 l 261 761 l 183 761 l 183 839 m 275 839 l 353 839 l 353 761 l 275 761 l 275 839 m 183 747 l 261 747 l 261 669 l 183 669 l 183 747 m 275 747 l 353 747 l 353 669 l 275 669 l 275 747 m 0 656 l 78 656 l 78 578 l 0 578 l 0 656 m 92 656 l 169 656 l 169 578 l 92 578 l 92 656 m 183 656 l 261 656 l 261 578 l 183 578 l 183 656 m 275 656 l 353 656 l 353 578 l 275 578 l 275 656 m 368 656 l 446 656 l 446 578 l 368 578 l 368 656 m 460 656 l 538 656 l 538 578 l 460 578 l 460 656 z "},",":{"ha":447,"x_min":92,"x_max":353,"o":"m 183 379 l 261 379 l 261 301 l 183 301 l 183 379 m 275 379 l 353 379 l 353 301 l 275 301 l 275 379 m 183 288 l 261 288 l 261 210 l 183 210 l 183 288 m 275 288 l 353 288 l 353 210 l 275 210 l 275 288 m 92 194 l 169 194 l 169 117 l 92 117 l 92 194 m 183 194 l 261 194 l 261 117 l 183 117 l 183 194 z "},"-":{"ha":551,"x_min":0,"x_max":446,"o":"m 0 656 l 78 656 l 78 578 l 0 578 l 0 656 m 92 656 l 169 656 l 169 578 l 92 578 l 92 656 m 183 656 l 261 656 l 261 578 l 183 578 l 183 656 m 275 656 l 353 656 l 353 578 l 275 578 l 275 656 m 368 656 l 446 656 l 446 578 l 368 578 l 368 656 z "},".":{"ha":447,"x_min":183,"x_max":353,"o":"m 183 379 l 261 379 l 261 301 l 183 301 l 183 379 m 275 379 l 353 379 l 353 301 l 275 301 l 275 379 m 183 288 l 261 288 l 261 210 l 183 210 l 183 288 m 275 288 l 353 288 l 353 210 l 275 210 l 275 288 z "},"/":{"ha":722,"x_min":0,"x_max":538,"o":"m 183 563 l 261 563 l 261 485 l 183 485 l 183 563 m 275 563 l 353 563 l 353 485 l 275 485 l 275 563 m 92 471 l 169 471 l 169 393 l 92 393 l 92 471 m 183 471 l 261 471 l 261 393 l 183 393 l 183 471 m 0 379 l 78 379 l 78 301 l 0 301 l 0 379 m 92 379 l 169 379 l 169 301 l 92 301 l 92 379 m 460 931 l 538 931 l 538 853 l 460 853 l 460 931 m 368 839 l 446 839 l 446 761 l 368 761 l 368 839 m 460 839 l 538 839 l 538 761 l 460 761 l 460 839 m 275 747 l 353 747 l 353 669 l 275 669 l 275 747 m 368 747 l 446 747 l 446 669 l 368 669 l 368 747 m 183 656 l 261 656 l 261 578 l 183 578 l 183 656 m 275 656 l 353 656 l 353 578 l 275 578 l 275 656 z "},":":{"ha":276,"x_min":0,"x_max":169,"o":"m 0 563 l 78 563 l 78 485 l 0 485 l 0 563 m 92 563 l 169 563 l 169 485 l 92 485 l 92 563 m 0 471 l 78 471 l 78 393 l 0 393 l 0 471 m 92 471 l 169 471 l 169 393 l 92 393 l 92 471 m 0 839 l 78 839 l 78 761 l 0 761 l 0 839 m 92 839 l 169 839 l 169 761 l 92 761 l 92 839 m 0 747 l 78 747 l 78 669 l 0 669 l 0 747 m 92 747 l 169 747 l 169 669 l 92 669 l 92 747 z "},";":{"ha":275,"x_min":0,"x_max":169,"o":"m 0 563 l 78 563 l 78 485 l 0 485 l 0 563 m 92 563 l 169 563 l 169 485 l 92 485 l 92 563 m 0 471 l 78 471 l 78 393 l 0 393 l 0 471 m 92 471 l 169 471 l 169 393 l 92 393 l 92 471 m 92 379 l 169 379 l 169 301 l 92 301 l 92 379 m 0 839 l 78 839 l 78 761 l 0 761 l 0 839 m 92 839 l 169 839 l 169 761 l 92 761 l 92 839 m 0 747 l 78 747 l 78 669 l 0 669 l 0 747 m 92 747 l 169 747 l 169 669 l 92 669 l 92 747 z "},"<":{"ha":722,"x_min":0,"x_max":353,"o":"m 92 563 l 169 563 l 169 485 l 92 485 l 92 563 m 183 563 l 261 563 l 261 485 l 183 485 l 183 563 m 183 471 l 261 471 l 261 393 l 183 393 l 183 471 m 275 471 l 353 471 l 353 393 l 275 393 l 275 471 m 183 839 l 261 839 l 261 761 l 183 761 l 183 839 m 275 839 l 353 839 l 353 761 l 275 761 l 275 839 m 92 747 l 169 747 l 169 669 l 92 669 l 92 747 m 183 747 l 261 747 l 261 669 l 183 669 l 183 747 m 0 656 l 78 656 l 78 578 l 0 578 l 0 656 m 92 656 l 169 656 l 169 578 l 92 578 l 92 656 z "},"=":{"ha":554,"x_min":0,"x_max":446,"o":"m 0 563 l 78 563 l 78 485 l 0 485 l 0 563 m 92 563 l 169 563 l 169 485 l 92 485 l 92 563 m 183 563 l 261 563 l 261 485 l 183 485 l 183 563 m 275 563 l 353 563 l 353 485 l 275 485 l 275 563 m 368 563 l 446 563 l 446 485 l 368 485 l 368 563 m 0 747 l 78 747 l 78 669 l 0 669 l 0 747 m 92 747 l 169 747 l 169 669 l 92 669 l 92 747 m 183 747 l 261 747 l 261 669 l 183 669 l 183 747 m 275 747 l 353 747 l 353 669 l 275 669 l 275 747 m 368 747 l 446 747 l 446 669 l 368 669 l 368 747 z "},">":{"ha":722,"x_min":0,"x_max":353,"o":"m 92 563 l 169 563 l 169 485 l 92 485 l 92 563 m 183 563 l 261 563 l 261 485 l 183 485 l 183 563 m 0 471 l 78 471 l 78 393 l 0 393 l 0 471 m 92 471 l 169 471 l 169 393 l 92 393 l 92 471 m 0 839 l 78 839 l 78 761 l 0 761 l 0 839 m 92 839 l 169 839 l 169 761 l 92 761 l 92 839 m 92 747 l 169 747 l 169 669 l 92 669 l 92 747 m 183 747 l 261 747 l 261 669 l 183 669 l 183 747 m 183 656 l 261 656 l 261 578 l 183 578 l 183 656 m 275 656 l 353 656 l 353 578 l 275 578 l 275 656 z "},"?":{"ha":722,"x_min":0,"x_max":538,"o":"m 183 471 l 261 471 l 261 393 l 183 393 l 183 471 m 275 471 l 353 471 l 353 393 l 275 393 l 275 471 m 183 379 l 261 379 l 261 301 l 183 301 l 183 379 m 275 379 l 353 379 l 353 301 l 275 301 l 275 379 m 92 931 l 169 931 l 169 853 l 92 853 l 92 931 m 183 931 l 261 931 l 261 853 l 183 853 l 183 931 m 275 931 l 353 931 l 353 853 l 275 853 l 275 931 m 368 931 l 446 931 l 446 853 l 368 853 l 368 931 m 0 839 l 78 839 l 78 761 l 0 761 l 0 839 m 92 839 l 169 839 l 169 761 l 92 761 l 92 839 m 368 839 l 446 839 l 446 761 l 368 761 l 368 839 m 460 839 l 538 839 l 538 761 l 460 761 l 460 839 m 275 747 l 353 747 l 353 669 l 275 669 l 275 747 m 368 747 l 446 747 l 446 669 l 368 669 l 368 747 m 183 656 l 261 656 l 261 578 l 183 578 l 183 656 m 275 656 l 353 656 l 353 578 l 275 578 l 275 656 z "},"@":{"ha":722,"x_min":0,"x_max":629,"o":"m 0 563 l 78 563 l 78 485 l 0 485 l 0 563 m 183 563 l 261 563 l 261 485 l 183 485 l 183 563 m 275 563 l 353 563 l 353 485 l 275 485 l 275 563 m 460 563 l 538 563 l 538 485 l 460 485 l 460 563 m 551 563 l 629 563 l 629 485 l 551 485 l 551 563 m 0 471 l 78 471 l 78 393 l 0 393 l 0 471 m 92 379 l 169 379 l 169 301 l 92 301 l 92 379 m 183 379 l 261 379 l 261 301 l 183 301 l 183 379 m 275 379 l 353 379 l 353 301 l 275 301 l 275 379 m 368 379 l 446 379 l 446 301 l 368 301 l 368 379 m 460 379 l 538 379 l 538 301 l 460 301 l 460 379 m 551 379 l 629 379 l 629 301 l 551 301 l 551 379 m 92 931 l 169 931 l 169 853 l 92 853 l 92 931 m 183 931 l 261 931 l 261 853 l 183 853 l 183 931 m 275 931 l 353 931 l 353 853 l 275 853 l 275 931 m 368 931 l 446 931 l 446 853 l 368 853 l 368 931 m 460 931 l 538 931 l 538 853 l 460 853 l 460 931 m 0 839 l 78 839 l 78 761 l 0 761 l 0 839 m 551 839 l 629 839 l 629 761 l 551 761 l 551 839 m 0 747 l 78 747 l 78 669 l 0 669 l 0 747 m 183 747 l 261 747 l 261 669 l 183 669 l 183 747 m 275 747 l 353 747 l 353 669 l 275 669 l 275 747 m 368 747 l 446 747 l 446 669 l 368 669 l 368 747 m 551 747 l 629 747 l 629 669 l 551 669 l 551 747 m 0 656 l 78 656 l 78 578 l 0 578 l 0 656 m 183 656 l 261 656 l 261 578 l 183 578 l 183 656 m 368 656 l 446 656 l 446 578 l 368 578 l 368 656 m 551 656 l 629 656 l 629 578 l 551 578 l 551 656 z "},"A":{"ha":722,"x_min":0,"x_max":629,"o":"m 0 563 l 78 563 l 78 485 l 0 485 l 0 563 m 92 563 l 169 563 l 169 485 l 92 485 l 92 563 m 183 563 l 261 563 l 261 485 l 183 485 l 183 563 m 275 563 l 353 563 l 353 485 l 275 485 l 275 563 m 368 563 l 446 563 l 446 485 l 368 485 l 368 563 m 460 563 l 538 563 l 538 485 l 460 485 l 460 563 m 551 563 l 629 563 l 629 485 l 551 485 l 551 563 m 0 471 l 78 471 l 78 393 l 0 393 l 0 471 m 92 471 l 169 471 l 169 393 l 92 393 l 92 471 m 460 471 l 538 471 l 538 393 l 460 393 l 460 471 m 551 471 l 629 471 l 629 393 l 551 393 l 551 471 m 0 379 l 78 379 l 78 301 l 0 301 l 0 379 m 92 379 l 169 379 l 169 301 l 92 301 l 92 379 m 460 379 l 538 379 l 538 301 l 460 301 l 460 379 m 551 379 l 629 379 l 629 301 l 551 301 l 551 379 m 183 931 l 261 931 l 261 853 l 183 853 l 183 931 m 275 931 l 353 931 l 353 853 l 275 853 l 275 931 m 368 931 l 446 931 l 446 853 l 368 853 l 368 931 m 92 839 l 169 839 l 169 761 l 92 761 l 92 839 m 183 839 l 261 839 l 261 761 l 183 761 l 183 839 m 368 839 l 446 839 l 446 761 l 368 761 l 368 839 m 460 839 l 538 839 l 538 761 l 460 761 l 460 839 m 0 747 l 78 747 l 78 669 l 0 669 l 0 747 m 92 747 l 169 747 l 169 669 l 92 669 l 92 747 m 460 747 l 538 747 l 538 669 l 460 669 l 460 747 m 551 747 l 629 747 l 629 669 l 551 669 l 551 747 m 0 656 l 78 656 l 78 578 l 0 578 l 0 656 m 92 656 l 169 656 l 169 578 l 92 578 l 92 656 m 460 656 l 538 656 l 538 578 l 460 578 l 460 656 m 551 656 l 629 656 l 629 578 l 551 578 l 551 656 z "},"B":{"ha":722,"x_min":0,"x_max":629,"o":"m 0 563 l 78 563 l 78 485 l 0 485 l 0 563 m 92 563 l 169 563 l 169 485 l 92 485 l 92 563 m 460 563 l 538 563 l 538 485 l 460 485 l 460 563 m 551 563 l 629 563 l 629 485 l 551 485 l 551 563 m 0 471 l 78 471 l 78 393 l 0 393 l 0 471 m 92 471 l 169 471 l 169 393 l 92 393 l 92 471 m 460 471 l 538 471 l 538 393 l 460 393 l 460 471 m 551 471 l 629 471 l 629 393 l 551 393 l 551 471 m 0 379 l 78 379 l 78 301 l 0 301 l 0 379 m 92 379 l 169 379 l 169 301 l 92 301 l 92 379 m 183 379 l 261 379 l 261 301 l 183 301 l 183 379 m 275 379 l 353 379 l 353 301 l 275 301 l 275 379 m 368 379 l 446 379 l 446 301 l 368 301 l 368 379 m 460 379 l 538 379 l 538 301 l 460 301 l 460 379 m 0 931 l 78 931 l 78 853 l 0 853 l 0 931 m 92 931 l 169 931 l 169 853 l 92 853 l 92 931 m 183 931 l 261 931 l 261 853 l 183 853 l 183 931 m 275 931 l 353 931 l 353 853 l 275 853 l 275 931 m 368 931 l 446 931 l 446 853 l 368 853 l 368 931 m 460 931 l 538 931 l 538 853 l 460 853 l 460 931 m 0 839 l 78 839 l 78 761 l 0 761 l 0 839 m 92 839 l 169 839 l 169 761 l 92 761 l 92 839 m 460 839 l 538 839 l 538 761 l 460 761 l 460 839 m 551 839 l 629 839 l 629 761 l 551 761 l 551 839 m 0 747 l 78 747 l 78 669 l 0 669 l 0 747 m 92 747 l 169 747 l 169 669 l 92 669 l 92 747 m 460 747 l 538 747 l 538 669 l 460 669 l 460 747 m 551 747 l 629 747 l 629 669 l 551 669 l 551 747 m 0 656 l 78 656 l 78 578 l 0 578 l 0 656 m 92 656 l 169 656 l 169 578 l 92 578 l 92 656 m 183 656 l 261 656 l 261 578 l 183 578 l 183 656 m 275 656 l 353 656 l 353 578 l 275 578 l 275 656 m 368 656 l 446 656 l 446 578 l 368 578 l 368 656 m 460 656 l 538 656 l 538 578 l 460 578 l 460 656 z "},"C":{"ha":722,"x_min":0,"x_max":629,"o":"m 0 563 l 78 563 l 78 485 l 0 485 l 0 563 m 92 563 l 169 563 l 169 485 l 92 485 l 92 563 m 0 471 l 78 471 l 78 393 l 0 393 l 0 471 m 92 471 l 169 471 l 169 393 l 92 393 l 92 471 m 460 471 l 538 471 l 538 393 l 460 393 l 460 471 m 551 471 l 629 471 l 629 393 l 551 393 l 551 471 m 92 379 l 169 379 l 169 301 l 92 301 l 92 379 m 183 379 l 261 379 l 261 301 l 183 301 l 183 379 m 275 379 l 353 379 l 353 301 l 275 301 l 275 379 m 368 379 l 446 379 l 446 301 l 368 301 l 368 379 m 460 379 l 538 379 l 538 301 l 460 301 l 460 379 m 92 931 l 169 931 l 169 853 l 92 853 l 92 931 m 183 931 l 261 931 l 261 853 l 183 853 l 183 931 m 275 931 l 353 931 l 353 853 l 275 853 l 275 931 m 368 931 l 446 931 l 446 853 l 368 853 l 368 931 m 460 931 l 538 931 l 538 853 l 460 853 l 460 931 m 0 839 l 78 839 l 78 761 l 0 761 l 0 839 m 92 839 l 169 839 l 169 761 l 92 761 l 92 839 m 460 839 l 538 839 l 538 761 l 460 761 l 460 839 m 551 839 l 629 839 l 629 761 l 551 761 l 551 839 m 0 747 l 78 747 l 78 669 l 0 669 l 0 747 m 92 747 l 169 747 l 169 669 l 92 669 l 92 747 m 0 656 l 78 656 l 78 578 l 0 578 l 0 656 m 92 656 l 169 656 l 169 578 l 92 578 l 92 656 z "},"D":{"ha":722,"x_min":0,"x_max":629,"o":"m 0 563 l 78 563 l 78 485 l 0 485 l 0 563 m 92 563 l 169 563 l 169 485 l 92 485 l 92 563 m 460 563 l 538 563 l 538 485 l 460 485 l 460 563 m 551 563 l 629 563 l 629 485 l 551 485 l 551 563 m 0 471 l 78 471 l 78 393 l 0 393 l 0 471 m 92 471 l 169 471 l 169 393 l 92 393 l 92 471 m 460 471 l 538 471 l 538 393 l 460 393 l 460 471 m 551 471 l 629 471 l 629 393 l 551 393 l 551 471 m 0 379 l 78 379 l 78 301 l 0 301 l 0 379 m 92 379 l 169 379 l 169 301 l 92 301 l 92 379 m 183 379 l 261 379 l 261 301 l 183 301 l 183 379 m 275 379 l 353 379 l 353 301 l 275 301 l 275 379 m 368 379 l 446 379 l 446 301 l 368 301 l 368 379 m 460 379 l 538 379 l 538 301 l 460 301 l 460 379 m 0 931 l 78 931 l 78 853 l 0 853 l 0 931 m 92 931 l 169 931 l 169 853 l 92 853 l 92 931 m 183 931 l 261 931 l 261 853 l 183 853 l 183 931 m 275 931 l 353 931 l 353 853 l 275 853 l 275 931 m 368 931 l 446 931 l 446 853 l 368 853 l 368 931 m 460 931 l 538 931 l 538 853 l 460 853 l 460 931 m 0 839 l 78 839 l 78 761 l 0 761 l 0 839 m 92 839 l 169 839 l 169 761 l 92 761 l 92 839 m 460 839 l 538 839 l 538 761 l 460 761 l 460 839 m 551 839 l 629 839 l 629 761 l 551 761 l 551 839 m 0 747 l 78 747 l 78 669 l 0 669 l 0 747 m 92 747 l 169 747 l 169 669 l 92 669 l 92 747 m 460 747 l 538 747 l 538 669 l 460 669 l 460 747 m 551 747 l 629 747 l 629 669 l 551 669 l 551 747 m 0 656 l 78 656 l 78 578 l 0 578 l 0 656 m 92 656 l 169 656 l 169 578 l 92 578 l 92 656 m 460 656 l 538 656 l 538 578 l 460 578 l 460 656 m 551 656 l 629 656 l 629 578 l 551 578 l 551 656 z "},"E":{"ha":722,"x_min":0,"x_max":629,"o":"m 0 563 l 78 563 l 78 485 l 0 485 l 0 563 m 92 563 l 169 563 l 169 485 l 92 485 l 92 563 m 0 471 l 78 471 l 78 393 l 0 393 l 0 471 m 92 471 l 169 471 l 169 393 l 92 393 l 92 471 m 0 379 l 78 379 l 78 301 l 0 301 l 0 379 m 92 379 l 169 379 l 169 301 l 92 301 l 92 379 m 183 379 l 261 379 l 261 301 l 183 301 l 183 379 m 275 379 l 353 379 l 353 301 l 275 301 l 275 379 m 368 379 l 446 379 l 446 301 l 368 301 l 368 379 m 460 379 l 538 379 l 538 301 l 460 301 l 460 379 m 551 379 l 629 379 l 629 301 l 551 301 l 551 379 m 0 931 l 78 931 l 78 853 l 0 853 l 0 931 m 92 931 l 169 931 l 169 853 l 92 853 l 92 931 m 183 931 l 261 931 l 261 853 l 183 853 l 183 931 m 275 931 l 353 931 l 353 853 l 275 853 l 275 931 m 368 931 l 446 931 l 446 853 l 368 853 l 368 931 m 460 931 l 538 931 l 538 853 l 460 853 l 460 931 m 551 931 l 629 931 l 629 853 l 551 853 l 551 931 m 0 839 l 78 839 l 78 761 l 0 761 l 0 839 m 92 839 l 169 839 l 169 761 l 92 761 l 92 839 m 0 747 l 78 747 l 78 669 l 0 669 l 0 747 m 92 747 l 169 747 l 169 669 l 92 669 l 92 747 m 0 656 l 78 656 l 78 578 l 0 578 l 0 656 m 92 656 l 169 656 l 169 578 l 92 578 l 92 656 m 183 656 l 261 656 l 261 578 l 183 578 l 183 656 m 275 656 l 353 656 l 353 578 l 275 578 l 275 656 m 368 656 l 446 656 l 446 578 l 368 578 l 368 656 m 460 656 l 538 656 l 538 578 l 460 578 l 460 656 z "},"F":{"ha":722,"x_min":0,"x_max":629,"o":"m 0 563 l 78 563 l 78 485 l 0 485 l 0 563 m 92 563 l 169 563 l 169 485 l 92 485 l 92 563 m 0 471 l 78 471 l 78 393 l 0 393 l 0 471 m 92 471 l 169 471 l 169 393 l 92 393 l 92 471 m 0 379 l 78 379 l 78 301 l 0 301 l 0 379 m 92 379 l 169 379 l 169 301 l 92 301 l 92 379 m 0 931 l 78 931 l 78 853 l 0 853 l 0 931 m 92 931 l 169 931 l 169 853 l 92 853 l 92 931 m 183 931 l 261 931 l 261 853 l 183 853 l 183 931 m 275 931 l 353 931 l 353 853 l 275 853 l 275 931 m 368 931 l 446 931 l 446 853 l 368 853 l 368 931 m 460 931 l 538 931 l 538 853 l 460 853 l 460 931 m 551 931 l 629 931 l 629 853 l 551 853 l 551 931 m 0 839 l 78 839 l 78 761 l 0 761 l 0 839 m 92 839 l 169 839 l 169 761 l 92 761 l 92 839 m 0 747 l 78 747 l 78 669 l 0 669 l 0 747 m 92 747 l 169 747 l 169 669 l 92 669 l 92 747 m 0 656 l 78 656 l 78 578 l 0 578 l 0 656 m 92 656 l 169 656 l 169 578 l 92 578 l 92 656 m 183 656 l 261 656 l 261 578 l 183 578 l 183 656 m 275 656 l 353 656 l 353 578 l 275 578 l 275 656 m 368 656 l 446 656 l 446 578 l 368 578 l 368 656 m 460 656 l 538 656 l 538 578 l 460 578 l 460 656 z "},"G":{"ha":722,"x_min":0,"x_max":629,"o":"m 0 563 l 78 563 l 78 485 l 0 485 l 0 563 m 92 563 l 169 563 l 169 485 l 92 485 l 92 563 m 460 563 l 538 563 l 538 485 l 460 485 l 460 563 m 551 563 l 629 563 l 629 485 l 551 485 l 551 563 m 0 471 l 78 471 l 78 393 l 0 393 l 0 471 m 92 471 l 169 471 l 169 393 l 92 393 l 92 471 m 460 471 l 538 471 l 538 393 l 460 393 l 460 471 m 551 471 l 629 471 l 629 393 l 551 393 l 551 471 m 92 379 l 169 379 l 169 301 l 92 301 l 92 379 m 183 379 l 261 379 l 261 301 l 183 301 l 183 379 m 275 379 l 353 379 l 353 301 l 275 301 l 275 379 m 368 379 l 446 379 l 446 301 l 368 301 l 368 379 m 460 379 l 538 379 l 538 301 l 460 301 l 460 379 m 92 931 l 169 931 l 169 853 l 92 853 l 92 931 m 183 931 l 261 931 l 261 853 l 183 853 l 183 931 m 275 931 l 353 931 l 353 853 l 275 853 l 275 931 m 368 931 l 446 931 l 446 853 l 368 853 l 368 931 m 460 931 l 538 931 l 538 853 l 460 853 l 460 931 m 0 839 l 78 839 l 78 761 l 0 761 l 0 839 m 92 839 l 169 839 l 169 761 l 92 761 l 92 839 m 460 839 l 538 839 l 538 761 l 460 761 l 460 839 m 551 839 l 629 839 l 629 761 l 551 761 l 551 839 m 0 747 l 78 747 l 78 669 l 0 669 l 0 747 m 92 747 l 169 747 l 169 669 l 92 669 l 92 747 m 0 656 l 78 656 l 78 578 l 0 578 l 0 656 m 92 656 l 169 656 l 169 578 l 92 578 l 92 656 m 368 656 l 446 656 l 446 578 l 368 578 l 368 656 m 460 656 l 538 656 l 538 578 l 460 578 l 460 656 m 551 656 l 629 656 l 629 578 l 551 578 l 551 656 z "},"H":{"ha":722,"x_min":0,"x_max":629,"o":"m 0 563 l 78 563 l 78 485 l 0 485 l 0 563 m 92 563 l 169 563 l 169 485 l 92 485 l 92 563 m 460 563 l 538 563 l 538 485 l 460 485 l 460 563 m 551 563 l 629 563 l 629 485 l 551 485 l 551 563 m 0 471 l 78 471 l 78 393 l 0 393 l 0 471 m 92 471 l 169 471 l 169 393 l 92 393 l 92 471 m 460 471 l 538 471 l 538 393 l 460 393 l 460 471 m 551 471 l 629 471 l 629 393 l 551 393 l 551 471 m 0 379 l 78 379 l 78 301 l 0 301 l 0 379 m 92 379 l 169 379 l 169 301 l 92 301 l 92 379 m 460 379 l 538 379 l 538 301 l 460 301 l 460 379 m 551 379 l 629 379 l 629 301 l 551 301 l 551 379 m 0 931 l 78 931 l 78 853 l 0 853 l 0 931 m 92 931 l 169 931 l 169 853 l 92 853 l 92 931 m 460 931 l 538 931 l 538 853 l 460 853 l 460 931 m 551 931 l 629 931 l 629 853 l 551 853 l 551 931 m 0 839 l 78 839 l 78 761 l 0 761 l 0 839 m 92 839 l 169 839 l 169 761 l 92 761 l 92 839 m 460 839 l 538 839 l 538 761 l 460 761 l 460 839 m 551 839 l 629 839 l 629 761 l 551 761 l 551 839 m 0 747 l 78 747 l 78 669 l 0 669 l 0 747 m 92 747 l 169 747 l 169 669 l 92 669 l 92 747 m 460 747 l 538 747 l 538 669 l 460 669 l 460 747 m 551 747 l 629 747 l 629 669 l 551 669 l 551 747 m 0 656 l 78 656 l 78 578 l 0 578 l 0 656 m 92 656 l 169 656 l 169 578 l 92 578 l 92 656 m 183 656 l 261 656 l 261 578 l 183 578 l 183 656 m 275 656 l 353 656 l 353 578 l 275 578 l 275 656 m 368 656 l 446 656 l 446 578 l 368 578 l 368 656 m 460 656 l 538 656 l 538 578 l 460 578 l 460 656 m 551 656 l 629 656 l 629 578 l 551 578 l 551 656 z "},"I":{"ha":722,"x_min":0,"x_max":538,"o":"m 183 563 l 261 563 l 261 485 l 183 485 l 183 563 m 275 563 l 353 563 l 353 485 l 275 485 l 275 563 m 183 471 l 261 471 l 261 393 l 183 393 l 183 471 m 275 471 l 353 471 l 353 393 l 275 393 l 275 471 m 0 379 l 78 379 l 78 301 l 0 301 l 0 379 m 92 379 l 169 379 l 169 301 l 92 301 l 92 379 m 183 379 l 261 379 l 261 301 l 183 301 l 183 379 m 275 379 l 353 379 l 353 301 l 275 301 l 275 379 m 368 379 l 446 379 l 446 301 l 368 301 l 368 379 m 460 379 l 538 379 l 538 301 l 460 301 l 460 379 m 0 931 l 78 931 l 78 853 l 0 853 l 0 931 m 92 931 l 169 931 l 169 853 l 92 853 l 92 931 m 183 931 l 261 931 l 261 853 l 183 853 l 183 931 m 275 931 l 353 931 l 353 853 l 275 853 l 275 931 m 368 931 l 446 931 l 446 853 l 368 853 l 368 931 m 460 931 l 538 931 l 538 853 l 460 853 l 460 931 m 183 839 l 261 839 l 261 761 l 183 761 l 183 839 m 275 839 l 353 839 l 353 761 l 275 761 l 275 839 m 183 747 l 261 747 l 261 669 l 183 669 l 183 747 m 275 747 l 353 747 l 353 669 l 275 669 l 275 747 m 183 656 l 261 656 l 261 578 l 183 578 l 183 656 m 275 656 l 353 656 l 353 578 l 275 578 l 275 656 z "},"J":{"ha":722,"x_min":0,"x_max":629,"o":"m 368 563 l 446 563 l 446 485 l 368 485 l 368 563 m 460 563 l 538 563 l 538 485 l 460 485 l 460 563 m 0 471 l 78 471 l 78 393 l 0 393 l 0 471 m 92 471 l 169 471 l 169 393 l 92 393 l 92 471 m 368 471 l 446 471 l 446 393 l 368 393 l 368 471 m 460 471 l 538 471 l 538 393 l 460 393 l 460 471 m 92 379 l 169 379 l 169 301 l 92 301 l 92 379 m 183 379 l 261 379 l 261 301 l 183 301 l 183 379 m 275 379 l 353 379 l 353 301 l 275 301 l 275 379 m 368 379 l 446 379 l 446 301 l 368 301 l 368 379 m 183 931 l 261 931 l 261 853 l 183 853 l 183 931 m 275 931 l 353 931 l 353 853 l 275 853 l 275 931 m 368 931 l 446 931 l 446 853 l 368 853 l 368 931 m 460 931 l 538 931 l 538 853 l 460 853 l 460 931 m 551 931 l 629 931 l 629 853 l 551 853 l 551 931 m 368 839 l 446 839 l 446 761 l 368 761 l 368 839 m 460 839 l 538 839 l 538 761 l 460 761 l 460 839 m 368 747 l 446 747 l 446 669 l 368 669 l 368 747 m 460 747 l 538 747 l 538 669 l 460 669 l 460 747 m 368 656 l 446 656 l 446 578 l 368 578 l 368 656 m 460 656 l 538 656 l 538 578 l 460 578 l 460 656 z "},"K":{"ha":722,"x_min":0,"x_max":629,"o":"m 0 563 l 78 563 l 78 485 l 0 485 l 0 563 m 92 563 l 169 563 l 169 485 l 92 485 l 92 563 m 183 563 l 261 563 l 261 485 l 183 485 l 183 563 m 275 563 l 353 563 l 353 485 l 275 485 l 275 563 m 368 563 l 446 563 l 446 485 l 368 485 l 368 563 m 0 471 l 78 471 l 78 393 l 0 393 l 0 471 m 92 471 l 169 471 l 169 393 l 92 393 l 92 471 m 275 471 l 353 471 l 353 393 l 275 393 l 275 471 m 368 471 l 446 471 l 446 393 l 368 393 l 368 471 m 460 471 l 538 471 l 538 393 l 460 393 l 460 471 m 0 379 l 78 379 l 78 301 l 0 301 l 0 379 m 92 379 l 169 379 l 169 301 l 92 301 l 92 379 m 460 379 l 538 379 l 538 301 l 460 301 l 460 379 m 551 379 l 629 379 l 629 301 l 551 301 l 551 379 m 0 931 l 78 931 l 78 853 l 0 853 l 0 931 m 92 931 l 169 931 l 169 853 l 92 853 l 92 931 m 460 931 l 538 931 l 538 853 l 460 853 l 460 931 m 551 931 l 629 931 l 629 853 l 551 853 l 551 931 m 0 839 l 78 839 l 78 761 l 0 761 l 0 839 m 92 839 l 169 839 l 169 761 l 92 761 l 92 839 m 368 839 l 446 839 l 446 761 l 368 761 l 368 839 m 460 839 l 538 839 l 538 761 l 460 761 l 460 839 m 0 747 l 78 747 l 78 669 l 0 669 l 0 747 m 92 747 l 169 747 l 169 669 l 92 669 l 92 747 m 275 747 l 353 747 l 353 669 l 275 669 l 275 747 m 368 747 l 446 747 l 446 669 l 368 669 l 368 747 m 0 656 l 78 656 l 78 578 l 0 578 l 0 656 m 92 656 l 169 656 l 169 578 l 92 578 l 92 656 m 183 656 l 261 656 l 261 578 l 183 578 l 183 656 m 275 656 l 353 656 l 353 578 l 275 578 l 275 656 z "},"L":{"ha":722,"x_min":0,"x_max":629,"o":"m 0 563 l 78 563 l 78 485 l 0 485 l 0 563 m 92 563 l 169 563 l 169 485 l 92 485 l 92 563 m 0 471 l 78 471 l 78 393 l 0 393 l 0 471 m 92 471 l 169 471 l 169 393 l 92 393 l 92 471 m 0 379 l 78 379 l 78 301 l 0 301 l 0 379 m 92 379 l 169 379 l 169 301 l 92 301 l 92 379 m 183 379 l 261 379 l 261 301 l 183 301 l 183 379 m 275 379 l 353 379 l 353 301 l 275 301 l 275 379 m 368 379 l 446 379 l 446 301 l 368 301 l 368 379 m 460 379 l 538 379 l 538 301 l 460 301 l 460 379 m 551 379 l 629 379 l 629 301 l 551 301 l 551 379 m 0 931 l 78 931 l 78 853 l 0 853 l 0 931 m 92 931 l 169 931 l 169 853 l 92 853 l 92 931 m 0 839 l 78 839 l 78 761 l 0 761 l 0 839 m 92 839 l 169 839 l 169 761 l 92 761 l 92 839 m 0 747 l 78 747 l 78 669 l 0 669 l 0 747 m 92 747 l 169 747 l 169 669 l 92 669 l 92 747 m 0 656 l 78 656 l 78 578 l 0 578 l 0 656 m 92 656 l 169 656 l 169 578 l 92 578 l 92 656 z "},"M":{"ha":722,"x_min":0,"x_max":629,"o":"m 0 563 l 78 563 l 78 485 l 0 485 l 0 563 m 92 563 l 169 563 l 169 485 l 92 485 l 92 563 m 275 563 l 353 563 l 353 485 l 275 485 l 275 563 m 460 563 l 538 563 l 538 485 l 460 485 l 460 563 m 551 563 l 629 563 l 629 485 l 551 485 l 551 563 m 0 471 l 78 471 l 78 393 l 0 393 l 0 471 m 92 471 l 169 471 l 169 393 l 92 393 l 92 471 m 460 471 l 538 471 l 538 393 l 460 393 l 460 471 m 551 471 l 629 471 l 629 393 l 551 393 l 551 471 m 0 379 l 78 379 l 78 301 l 0 301 l 0 379 m 92 379 l 169 379 l 169 301 l 92 301 l 92 379 m 460 379 l 538 379 l 538 301 l 460 301 l 460 379 m 551 379 l 629 379 l 629 301 l 551 301 l 551 379 m 0 931 l 78 931 l 78 853 l 0 853 l 0 931 m 551 931 l 629 931 l 629 853 l 551 853 l 551 931 m 0 839 l 78 839 l 78 761 l 0 761 l 0 839 m 92 839 l 169 839 l 169 761 l 92 761 l 92 839 m 460 839 l 538 839 l 538 761 l 460 761 l 460 839 m 551 839 l 629 839 l 629 761 l 551 761 l 551 839 m 0 747 l 78 747 l 78 669 l 0 669 l 0 747 m 92 747 l 169 747 l 169 669 l 92 669 l 92 747 m 183 747 l 261 747 l 261 669 l 183 669 l 183 747 m 368 747 l 446 747 l 446 669 l 368 669 l 368 747 m 460 747 l 538 747 l 538 669 l 460 669 l 460 747 m 551 747 l 629 747 l 629 669 l 551 669 l 551 747 m 0 656 l 78 656 l 78 578 l 0 578 l 0 656 m 92 656 l 169 656 l 169 578 l 92 578 l 92 656 m 183 656 l 261 656 l 261 578 l 183 578 l 183 656 m 275 656 l 353 656 l 353 578 l 275 578 l 275 656 m 368 656 l 446 656 l 446 578 l 368 578 l 368 656 m 460 656 l 538 656 l 538 578 l 460 578 l 460 656 m 551 656 l 629 656 l 629 578 l 551 578 l 551 656 z "},"N":{"ha":722,"x_min":0,"x_max":629,"o":"m 0 563 l 78 563 l 78 485 l 0 485 l 0 563 m 92 563 l 169 563 l 169 485 l 92 485 l 92 563 m 368 563 l 446 563 l 446 485 l 368 485 l 368 563 m 460 563 l 538 563 l 538 485 l 460 485 l 460 563 m 551 563 l 629 563 l 629 485 l 551 485 l 551 563 m 0 471 l 78 471 l 78 393 l 0 393 l 0 471 m 92 471 l 169 471 l 169 393 l 92 393 l 92 471 m 460 471 l 538 471 l 538 393 l 460 393 l 460 471 m 551 471 l 629 471 l 629 393 l 551 393 l 551 471 m 0 379 l 78 379 l 78 301 l 0 301 l 0 379 m 92 379 l 169 379 l 169 301 l 92 301 l 92 379 m 460 379 l 538 379 l 538 301 l 460 301 l 460 379 m 551 379 l 629 379 l 629 301 l 551 301 l 551 379 m 0 931 l 78 931 l 78 853 l 0 853 l 0 931 m 92 931 l 169 931 l 169 853 l 92 853 l 92 931 m 460 931 l 538 931 l 538 853 l 460 853 l 460 931 m 551 931 l 629 931 l 629 853 l 551 853 l 551 931 m 0 839 l 78 839 l 78 761 l 0 761 l 0 839 m 92 839 l 169 839 l 169 761 l 92 761 l 92 839 m 183 839 l 261 839 l 261 761 l 183 761 l 183 839 m 460 839 l 538 839 l 538 761 l 460 761 l 460 839 m 551 839 l 629 839 l 629 761 l 551 761 l 551 839 m 0 747 l 78 747 l 78 669 l 0 669 l 0 747 m 92 747 l 169 747 l 169 669 l 92 669 l 92 747 m 183 747 l 261 747 l 261 669 l 183 669 l 183 747 m 275 747 l 353 747 l 353 669 l 275 669 l 275 747 m 460 747 l 538 747 l 538 669 l 460 669 l 460 747 m 551 747 l 629 747 l 629 669 l 551 669 l 551 747 m 0 656 l 78 656 l 78 578 l 0 578 l 0 656 m 92 656 l 169 656 l 169 578 l 92 578 l 92 656 m 275 656 l 353 656 l 353 578 l 275 578 l 275 656 m 368 656 l 446 656 l 446 578 l 368 578 l 368 656 m 460 656 l 538 656 l 538 578 l 460 578 l 460 656 m 551 656 l 629 656 l 629 578 l 551 578 l 551 656 z "},"O":{"ha":722,"x_min":0,"x_max":629,"o":"m 0 563 l 78 563 l 78 485 l 0 485 l 0 563 m 92 563 l 169 563 l 169 485 l 92 485 l 92 563 m 460 563 l 538 563 l 538 485 l 460 485 l 460 563 m 551 563 l 629 563 l 629 485 l 551 485 l 551 563 m 0 471 l 78 471 l 78 393 l 0 393 l 0 471 m 92 471 l 169 471 l 169 393 l 92 393 l 92 471 m 460 471 l 538 471 l 538 393 l 460 393 l 460 471 m 551 471 l 629 471 l 629 393 l 551 393 l 551 471 m 92 379 l 169 379 l 169 301 l 92 301 l 92 379 m 183 379 l 261 379 l 261 301 l 183 301 l 183 379 m 275 379 l 353 379 l 353 301 l 275 301 l 275 379 m 368 379 l 446 379 l 446 301 l 368 301 l 368 379 m 460 379 l 538 379 l 538 301 l 460 301 l 460 379 m 92 931 l 169 931 l 169 853 l 92 853 l 92 931 m 183 931 l 261 931 l 261 853 l 183 853 l 183 931 m 275 931 l 353 931 l 353 853 l 275 853 l 275 931 m 368 931 l 446 931 l 446 853 l 368 853 l 368 931 m 460 931 l 538 931 l 538 853 l 460 853 l 460 931 m 0 839 l 78 839 l 78 761 l 0 761 l 0 839 m 92 839 l 169 839 l 169 761 l 92 761 l 92 839 m 460 839 l 538 839 l 538 761 l 460 761 l 460 839 m 551 839 l 629 839 l 629 761 l 551 761 l 551 839 m 0 747 l 78 747 l 78 669 l 0 669 l 0 747 m 92 747 l 169 747 l 169 669 l 92 669 l 92 747 m 460 747 l 538 747 l 538 669 l 460 669 l 460 747 m 551 747 l 629 747 l 629 669 l 551 669 l 551 747 m 0 656 l 78 656 l 78 578 l 0 578 l 0 656 m 92 656 l 169 656 l 169 578 l 92 578 l 92 656 m 460 656 l 538 656 l 538 578 l 460 578 l 460 656 m 551 656 l 629 656 l 629 578 l 551 578 l 551 656 z "},"P":{"ha":722,"x_min":0,"x_max":629,"o":"m 0 563 l 78 563 l 78 485 l 0 485 l 0 563 m 92 563 l 169 563 l 169 485 l 92 485 l 92 563 m 0 471 l 78 471 l 78 393 l 0 393 l 0 471 m 92 471 l 169 471 l 169 393 l 92 393 l 92 471 m 0 379 l 78 379 l 78 301 l 0 301 l 0 379 m 92 379 l 169 379 l 169 301 l 92 301 l 92 379 m 0 931 l 78 931 l 78 853 l 0 853 l 0 931 m 92 931 l 169 931 l 169 853 l 92 853 l 92 931 m 183 931 l 261 931 l 261 853 l 183 853 l 183 931 m 275 931 l 353 931 l 353 853 l 275 853 l 275 931 m 368 931 l 446 931 l 446 853 l 368 853 l 368 931 m 460 931 l 538 931 l 538 853 l 460 853 l 460 931 m 0 839 l 78 839 l 78 761 l 0 761 l 0 839 m 92 839 l 169 839 l 169 761 l 92 761 l 92 839 m 460 839 l 538 839 l 538 761 l 460 761 l 460 839 m 551 839 l 629 839 l 629 761 l 551 761 l 551 839 m 0 747 l 78 747 l 78 669 l 0 669 l 0 747 m 92 747 l 169 747 l 169 669 l 92 669 l 92 747 m 460 747 l 538 747 l 538 669 l 460 669 l 460 747 m 551 747 l 629 747 l 629 669 l 551 669 l 551 747 m 0 656 l 78 656 l 78 578 l 0 578 l 0 656 m 92 656 l 169 656 l 169 578 l 92 578 l 92 656 m 183 656 l 261 656 l 261 578 l 183 578 l 183 656 m 275 656 l 353 656 l 353 578 l 275 578 l 275 656 m 368 656 l 446 656 l 446 578 l 368 578 l 368 656 m 460 656 l 538 656 l 538 578 l 460 578 l 460 656 z "},"Q":{"ha":722,"x_min":0,"x_max":629,"o":"m 0 563 l 78 563 l 78 485 l 0 485 l 0 563 m 92 563 l 169 563 l 169 485 l 92 485 l 92 563 m 275 563 l 353 563 l 353 485 l 275 485 l 275 563 m 368 563 l 446 563 l 446 485 l 368 485 l 368 563 m 460 563 l 538 563 l 538 485 l 460 485 l 460 563 m 551 563 l 629 563 l 629 485 l 551 485 l 551 563 m 0 471 l 78 471 l 78 393 l 0 393 l 0 471 m 92 471 l 169 471 l 169 393 l 92 393 l 92 471 m 368 471 l 446 471 l 446 393 l 368 393 l 368 471 m 460 471 l 538 471 l 538 393 l 460 393 l 460 471 m 92 379 l 169 379 l 169 301 l 92 301 l 92 379 m 183 379 l 261 379 l 261 301 l 183 301 l 183 379 m 275 379 l 353 379 l 353 301 l 275 301 l 275 379 m 460 379 l 538 379 l 538 301 l 460 301 l 460 379 m 551 379 l 629 379 l 629 301 l 551 301 l 551 379 m 92 931 l 169 931 l 169 853 l 92 853 l 92 931 m 183 931 l 261 931 l 261 853 l 183 853 l 183 931 m 275 931 l 353 931 l 353 853 l 275 853 l 275 931 m 368 931 l 446 931 l 446 853 l 368 853 l 368 931 m 460 931 l 538 931 l 538 853 l 460 853 l 460 931 m 0 839 l 78 839 l 78 761 l 0 761 l 0 839 m 92 839 l 169 839 l 169 761 l 92 761 l 92 839 m 460 839 l 538 839 l 538 761 l 460 761 l 460 839 m 551 839 l 629 839 l 629 761 l 551 761 l 551 839 m 0 747 l 78 747 l 78 669 l 0 669 l 0 747 m 92 747 l 169 747 l 169 669 l 92 669 l 92 747 m 446 669 m 460 747 l 538 747 l 538 669 l 460 669 l 460 747 m 551 747 l 629 747 l 629 669 l 551 669 l 551 747 m 0 656 l 78 656 l 78 578 l 0 578 l 0 656 m 92 656 l 169 656 l 169 578 l 92 578 l 92 656 m 446 656 m 460 656 l 538 656 l 538 578 l 460 578 l 460 656 m 551 656 l 629 656 l 629 578 l 551 578 l 551 656 z "},"R":{"ha":722,"x_min":0,"x_max":629,"o":"m 0 563 l 78 563 l 78 485 l 0 485 l 0 563 m 92 563 l 169 563 l 169 485 l 92 485 l 92 563 m 275 563 l 353 563 l 353 485 l 275 485 l 275 563 m 368 563 l 446 563 l 446 485 l 368 485 l 368 563 m 0 471 l 78 471 l 78 393 l 0 393 l 0 471 m 92 471 l 169 471 l 169 393 l 92 393 l 92 471 m 368 471 l 446 471 l 446 393 l 368 393 l 368 471 m 460 471 l 538 471 l 538 393 l 460 393 l 460 471 m 0 379 l 78 379 l 78 301 l 0 301 l 0 379 m 92 379 l 169 379 l 169 301 l 92 301 l 92 379 m 460 379 l 538 379 l 538 301 l 460 301 l 460 379 m 551 379 l 629 379 l 629 301 l 551 301 l 551 379 m 0 931 l 78 931 l 78 853 l 0 853 l 0 931 m 92 931 l 169 931 l 169 853 l 92 853 l 92 931 m 183 931 l 261 931 l 261 853 l 183 853 l 183 931 m 275 931 l 353 931 l 353 853 l 275 853 l 275 931 m 368 931 l 446 931 l 446 853 l 368 853 l 368 931 m 460 931 l 538 931 l 538 853 l 460 853 l 460 931 m 0 839 l 78 839 l 78 761 l 0 761 l 0 839 m 92 839 l 169 839 l 169 761 l 92 761 l 92 839 m 460 839 l 538 839 l 538 761 l 460 761 l 460 839 m 551 839 l 629 839 l 629 761 l 551 761 l 551 839 m 0 747 l 78 747 l 78 669 l 0 669 l 0 747 m 92 747 l 169 747 l 169 669 l 92 669 l 92 747 m 460 747 l 538 747 l 538 669 l 460 669 l 460 747 m 551 747 l 629 747 l 629 669 l 551 669 l 551 747 m 0 656 l 78 656 l 78 578 l 0 578 l 0 656 m 92 656 l 169 656 l 169 578 l 92 578 l 92 656 m 183 656 l 261 656 l 261 578 l 183 578 l 183 656 m 275 656 l 353 656 l 353 578 l 275 578 l 275 656 m 368 656 l 446 656 l 446 578 l 368 578 l 368 656 m 460 656 l 538 656 l 538 578 l 460 578 l 460 656 z "},"S":{"ha":722,"x_min":0,"x_max":629,"o":"m 460 563 l 538 563 l 538 485 l 460 485 l 460 563 m 551 563 l 629 563 l 629 485 l 551 485 l 551 563 m 0 471 l 78 471 l 78 393 l 0 393 l 0 471 m 92 471 l 169 471 l 169 393 l 92 393 l 92 471 m 460 471 l 538 471 l 538 393 l 460 393 l 460 471 m 551 471 l 629 471 l 629 393 l 551 393 l 551 471 m 92 379 l 169 379 l 169 301 l 92 301 l 92 379 m 183 379 l 261 379 l 261 301 l 183 301 l 183 379 m 275 379 l 353 379 l 353 301 l 275 301 l 275 379 m 368 379 l 446 379 l 446 301 l 368 301 l 368 379 m 460 379 l 538 379 l 538 301 l 460 301 l 460 379 m 92 931 l 169 931 l 169 853 l 92 853 l 92 931 m 183 931 l 261 931 l 261 853 l 183 853 l 183 931 m 275 931 l 353 931 l 353 853 l 275 853 l 275 931 m 368 931 l 446 931 l 446 853 l 368 853 l 368 931 m 460 931 l 538 931 l 538 853 l 460 853 l 460 931 m 0 839 l 78 839 l 78 761 l 0 761 l 0 839 m 92 839 l 169 839 l 169 761 l 92 761 l 92 839 m 460 839 l 538 839 l 538 761 l 460 761 l 460 839 m 551 839 l 629 839 l 629 761 l 551 761 l 551 839 m 0 747 l 78 747 l 78 669 l 0 669 l 0 747 m 92 747 l 169 747 l 169 669 l 92 669 l 92 747 m 92 656 l 169 656 l 169 578 l 92 578 l 92 656 m 183 656 l 261 656 l 261 578 l 183 578 l 183 656 m 275 656 l 353 656 l 353 578 l 275 578 l 275 656 m 368 656 l 446 656 l 446 578 l 368 578 l 368 656 m 460 656 l 538 656 l 538 578 l 460 578 l 460 656 z "},"T":{"ha":722,"x_min":0,"x_max":538,"o":"m 183 563 l 261 563 l 261 485 l 183 485 l 183 563 m 275 563 l 353 563 l 353 485 l 275 485 l 275 563 m 183 471 l 261 471 l 261 393 l 183 393 l 183 471 m 275 471 l 353 471 l 353 393 l 275 393 l 275 471 m 183 379 l 261 379 l 261 301 l 183 301 l 183 379 m 275 379 l 353 379 l 353 301 l 275 301 l 275 379 m 0 931 l 78 931 l 78 853 l 0 853 l 0 931 m 92 931 l 169 931 l 169 853 l 92 853 l 92 931 m 183 931 l 261 931 l 261 853 l 183 853 l 183 931 m 275 931 l 353 931 l 353 853 l 275 853 l 275 931 m 368 931 l 446 931 l 446 853 l 368 853 l 368 931 m 460 931 l 538 931 l 538 853 l 460 853 l 460 931 m 183 839 l 261 839 l 261 761 l 183 761 l 183 839 m 275 839 l 353 839 l 353 761 l 275 761 l 275 839 m 183 747 l 261 747 l 261 669 l 183 669 l 183 747 m 275 747 l 353 747 l 353 669 l 275 669 l 275 747 m 183 656 l 261 656 l 261 578 l 183 578 l 183 656 m 275 656 l 353 656 l 353 578 l 275 578 l 275 656 z "},"U":{"ha":722,"x_min":0,"x_max":629,"o":"m 0 563 l 78 563 l 78 485 l 0 485 l 0 563 m 92 563 l 169 563 l 169 485 l 92 485 l 92 563 m 460 563 l 538 563 l 538 485 l 460 485 l 460 563 m 551 563 l 629 563 l 629 485 l 551 485 l 551 563 m 0 471 l 78 471 l 78 393 l 0 393 l 0 471 m 92 471 l 169 471 l 169 393 l 92 393 l 92 471 m 460 471 l 538 471 l 538 393 l 460 393 l 460 471 m 551 471 l 629 471 l 629 393 l 551 393 l 551 471 m 92 379 l 169 379 l 169 301 l 92 301 l 92 379 m 183 379 l 261 379 l 261 301 l 183 301 l 183 379 m 275 379 l 353 379 l 353 301 l 275 301 l 275 379 m 368 379 l 446 379 l 446 301 l 368 301 l 368 379 m 460 379 l 538 379 l 538 301 l 460 301 l 460 379 m 0 931 l 78 931 l 78 853 l 0 853 l 0 931 m 92 931 l 169 931 l 169 853 l 92 853 l 92 931 m 460 931 l 538 931 l 538 853 l 460 853 l 460 931 m 551 931 l 629 931 l 629 853 l 551 853 l 551 931 m 0 839 l 78 839 l 78 761 l 0 761 l 0 839 m 92 839 l 169 839 l 169 761 l 92 761 l 92 839 m 460 839 l 538 839 l 538 761 l 460 761 l 460 839 m 551 839 l 629 839 l 629 761 l 551 761 l 551 839 m 0 747 l 78 747 l 78 669 l 0 669 l 0 747 m 92 747 l 169 747 l 169 669 l 92 669 l 92 747 m 460 747 l 538 747 l 538 669 l 460 669 l 460 747 m 551 747 l 629 747 l 629 669 l 551 669 l 551 747 m 0 656 l 78 656 l 78 578 l 0 578 l 0 656 m 92 656 l 169 656 l 169 578 l 92 578 l 92 656 m 460 656 l 538 656 l 538 578 l 460 578 l 460 656 m 551 656 l 629 656 l 629 578 l 551 578 l 551 656 z "},"V":{"ha":722,"x_min":0,"x_max":629,"o":"m 0 563 l 78 563 l 78 485 l 0 485 l 0 563 m 92 563 l 169 563 l 169 485 l 92 485 l 92 563 m 460 563 l 538 563 l 538 485 l 460 485 l 460 563 m 551 563 l 629 563 l 629 485 l 551 485 l 551 563 m 92 471 l 169 471 l 169 393 l 92 393 l 92 471 m 183 471 l 261 471 l 261 393 l 183 393 l 183 471 m 368 471 l 446 471 l 446 393 l 368 393 l 368 471 m 460 471 l 538 471 l 538 393 l 460 393 l 460 471 m 183 379 l 261 379 l 261 301 l 183 301 l 183 379 m 275 379 l 353 379 l 353 301 l 275 301 l 275 379 m 368 379 l 446 379 l 446 301 l 368 301 l 368 379 m 0 931 l 78 931 l 78 853 l 0 853 l 0 931 m 92 931 l 169 931 l 169 853 l 92 853 l 92 931 m 460 931 l 538 931 l 538 853 l 460 853 l 460 931 m 551 931 l 629 931 l 629 853 l 551 853 l 551 931 m 0 839 l 78 839 l 78 761 l 0 761 l 0 839 m 92 839 l 169 839 l 169 761 l 92 761 l 92 839 m 460 839 l 538 839 l 538 761 l 460 761 l 460 839 m 551 839 l 629 839 l 629 761 l 551 761 l 551 839 m 0 747 l 78 747 l 78 669 l 0 669 l 0 747 m 92 747 l 169 747 l 169 669 l 92 669 l 92 747 m 460 747 l 538 747 l 538 669 l 460 669 l 460 747 m 551 747 l 629 747 l 629 669 l 551 669 l 551 747 m 0 656 l 78 656 l 78 578 l 0 578 l 0 656 m 92 656 l 169 656 l 169 578 l 92 578 l 92 656 m 460 656 l 538 656 l 538 578 l 460 578 l 460 656 m 551 656 l 629 656 l 629 578 l 551 578 l 551 656 z "},"W":{"ha":722,"x_min":0,"x_max":629,"o":"m 0 563 l 78 563 l 78 485 l 0 485 l 0 563 m 92 563 l 169 563 l 169 485 l 92 485 l 92 563 m 275 563 l 353 563 l 353 485 l 275 485 l 275 563 m 460 563 l 538 563 l 538 485 l 460 485 l 460 563 m 551 563 l 629 563 l 629 485 l 551 485 l 551 563 m 0 471 l 78 471 l 78 393 l 0 393 l 0 471 m 92 471 l 169 471 l 169 393 l 92 393 l 92 471 m 183 471 l 261 471 l 261 393 l 183 393 l 183 471 m 275 471 l 353 471 l 353 393 l 275 393 l 275 471 m 368 471 l 446 471 l 446 393 l 368 393 l 368 471 m 460 471 l 538 471 l 538 393 l 460 393 l 460 471 m 551 471 l 629 471 l 629 393 l 551 393 l 551 471 m 92 379 l 169 379 l 169 301 l 92 301 l 92 379 m 183 379 l 261 379 l 261 301 l 183 301 l 183 379 m 368 379 l 446 379 l 446 301 l 368 301 l 368 379 m 460 379 l 538 379 l 538 301 l 460 301 l 460 379 m 0 931 l 78 931 l 78 853 l 0 853 l 0 931 m 92 931 l 169 931 l 169 853 l 92 853 l 92 931 m 460 931 l 538 931 l 538 853 l 460 853 l 460 931 m 551 931 l 629 931 l 629 853 l 551 853 l 551 931 m 0 839 l 78 839 l 78 761 l 0 761 l 0 839 m 92 839 l 169 839 l 169 761 l 92 761 l 92 839 m 460 839 l 538 839 l 538 761 l 460 761 l 460 839 m 551 839 l 629 839 l 629 761 l 551 761 l 551 839 m 0 747 l 78 747 l 78 669 l 0 669 l 0 747 m 92 747 l 169 747 l 169 669 l 92 669 l 92 747 m 460 747 l 538 747 l 538 669 l 460 669 l 460 747 m 551 747 l 629 747 l 629 669 l 551 669 l 551 747 m 0 656 l 78 656 l 78 578 l 0 578 l 0 656 m 92 656 l 169 656 l 169 578 l 92 578 l 92 656 m 460 656 l 538 656 l 538 578 l 460 578 l 460 656 m 551 656 l 629 656 l 629 578 l 551 578 l 551 656 z "},"X":{"ha":722,"x_min":0,"x_max":629,"o":"m 92 563 l 169 563 l 169 485 l 92 485 l 92 563 m 183 563 l 261 563 l 261 485 l 183 485 l 183 563 m 368 563 l 446 563 l 446 485 l 368 485 l 368 563 m 460 563 l 538 563 l 538 485 l 460 485 l 460 563 m 0 471 l 78 471 l 78 393 l 0 393 l 0 471 m 92 471 l 169 471 l 169 393 l 92 393 l 92 471 m 460 471 l 538 471 l 538 393 l 460 393 l 460 471 m 551 471 l 629 471 l 629 393 l 551 393 l 551 471 m 0 379 l 78 379 l 78 301 l 0 301 l 0 379 m 551 379 l 629 379 l 629 301 l 551 301 l 551 379 m 0 931 l 78 931 l 78 853 l 0 853 l 0 931 m 92 931 l 169 931 l 169 853 l 92 853 l 92 931 m 538 853 m 551 931 l 629 931 l 629 853 l 551 853 l 551 931 m 92 839 l 169 839 l 169 761 l 92 761 l 92 839 m 183 839 l 261 839 l 261 761 l 183 761 l 183 839 m 368 839 l 446 839 l 446 761 l 368 761 l 368 839 m 460 839 l 538 839 l 538 761 l 460 761 l 460 839 m 183 747 l 261 747 l 261 669 l 183 669 l 183 747 m 275 747 l 353 747 l 353 669 l 275 669 l 275 747 m 368 747 l 446 747 l 446 669 l 368 669 l 368 747 m 183 656 l 261 656 l 261 578 l 183 578 l 183 656 m 275 656 l 353 656 l 353 578 l 275 578 l 275 656 m 368 656 l 446 656 l 446 578 l 368 578 l 368 656 m 460 931 l 538 931 l 538 853 l 460 853 l 460 931 z "},"Y":{"ha":722,"x_min":0,"x_max":538,"o":"m 183 563 l 261 563 l 261 485 l 183 485 l 183 563 m 275 563 l 353 563 l 353 485 l 275 485 l 275 563 m 183 471 l 261 471 l 261 393 l 183 393 l 183 471 m 275 471 l 353 471 l 353 393 l 275 393 l 275 471 m 183 379 l 261 379 l 261 301 l 183 301 l 183 379 m 275 379 l 353 379 l 353 301 l 275 301 l 275 379 m 0 931 l 78 931 l 78 853 l 0 853 l 0 931 m 92 931 l 169 931 l 169 853 l 92 853 l 92 931 m 368 931 l 446 931 l 446 853 l 368 853 l 368 931 m 460 931 l 538 931 l 538 853 l 460 853 l 460 931 m 0 839 l 78 839 l 78 761 l 0 761 l 0 839 m 92 839 l 169 839 l 169 761 l 92 761 l 92 839 m 368 839 l 446 839 l 446 761 l 368 761 l 368 839 m 460 839 l 538 839 l 538 761 l 460 761 l 460 839 m 0 747 l 78 747 l 78 669 l 0 669 l 0 747 m 92 747 l 169 747 l 169 669 l 92 669 l 92 747 m 368 747 l 446 747 l 446 669 l 368 669 l 368 747 m 460 747 l 538 747 l 538 669 l 460 669 l 460 747 m 92 656 l 169 656 l 169 578 l 92 578 l 92 656 m 183 656 l 261 656 l 261 578 l 183 578 l 183 656 m 275 656 l 353 656 l 353 578 l 275 578 l 275 656 m 368 656 l 446 656 l 446 578 l 368 578 l 368 656 z "},"Z":{"ha":722,"x_min":0,"x_max":629,"o":"m 92 563 l 169 563 l 169 485 l 92 485 l 92 563 m 183 563 l 261 563 l 261 485 l 183 485 l 183 563 m 0 471 l 78 471 l 78 393 l 0 393 l 0 471 m 92 471 l 169 471 l 169 393 l 92 393 l 92 471 m 0 379 l 78 379 l 78 301 l 0 301 l 0 379 m 92 379 l 169 379 l 169 301 l 92 301 l 92 379 m 183 379 l 261 379 l 261 301 l 183 301 l 183 379 m 275 379 l 353 379 l 353 301 l 275 301 l 275 379 m 368 379 l 446 379 l 446 301 l 368 301 l 368 379 m 460 379 l 538 379 l 538 301 l 460 301 l 460 379 m 551 379 l 629 379 l 629 301 l 551 301 l 551 379 m 0 931 l 78 931 l 78 853 l 0 853 l 0 931 m 92 931 l 169 931 l 169 853 l 92 853 l 92 931 m 183 931 l 261 931 l 261 853 l 183 853 l 183 931 m 275 931 l 353 931 l 353 853 l 275 853 l 275 931 m 368 931 l 446 931 l 446 853 l 368 853 l 368 931 m 460 931 l 538 931 l 538 853 l 460 853 l 460 931 m 551 931 l 629 931 l 629 853 l 551 853 l 551 931 m 368 839 l 446 839 l 446 761 l 368 761 l 368 839 m 460 839 l 538 839 l 538 761 l 460 761 l 460 839 m 275 747 l 353 747 l 353 669 l 275 669 l 275 747 m 368 747 l 446 747 l 446 669 l 368 669 l 368 747 m 183 656 l 261 656 l 261 578 l 183 578 l 183 656 m 275 656 l 353 656 l 353 578 l 275 578 l 275 656 z "},"[":{"ha":422,"x_min":0,"x_max":261,"o":"m 0 563 l 78 563 l 78 485 l 0 485 l 0 563 m 92 563 l 169 563 l 169 485 l 92 485 l 92 563 m 0 471 l 78 471 l 78 393 l 0 393 l 0 471 m 92 471 l 169 471 l 169 393 l 92 393 l 92 471 m 0 379 l 78 379 l 78 301 l 0 301 l 0 379 m 92 379 l 169 379 l 169 301 l 92 301 l 92 379 m 183 379 l 261 379 l 261 301 l 183 301 l 183 379 m 0 931 l 78 931 l 78 853 l 0 853 l 0 931 m 92 931 l 169 931 l 169 853 l 92 853 l 92 931 m 183 931 l 261 931 l 261 853 l 183 853 l 183 931 m 0 839 l 78 839 l 78 761 l 0 761 l 0 839 m 92 839 l 169 839 l 169 761 l 92 761 l 92 839 m 0 747 l 78 747 l 78 669 l 0 669 l 0 747 m 92 747 l 169 747 l 169 669 l 92 669 l 92 747 m 0 656 l 78 656 l 78 578 l 0 578 l 0 656 m 92 656 l 169 656 l 169 578 l 92 578 l 92 656 z "},"\\":{"ha":722,"x_min":0,"x_max":629,"o":"m 368 563 l 446 563 l 446 485 l 368 485 l 368 563 m 460 563 l 538 563 l 538 485 l 460 485 l 460 563 m 460 471 l 538 471 l 538 393 l 460 393 l 460 471 m 551 471 l 629 471 l 629 393 l 551 393 l 551 471 m 551 379 l 629 379 l 629 301 l 551 301 l 551 379 m 0 931 l 78 931 l 78 853 l 0 853 l 0 931 m 92 931 l 169 931 l 169 853 l 92 853 l 92 931 m 92 839 l 169 839 l 169 761 l 92 761 l 92 839 m 183 839 l 261 839 l 261 761 l 183 761 l 183 839 m 183 747 l 261 747 l 261 669 l 183 669 l 183 747 m 275 747 l 353 747 l 353 669 l 275 669 l 275 747 m 275 656 l 353 656 l 353 578 l 275 578 l 275 656 m 368 656 l 446 656 l 446 578 l 368 578 l 368 656 z "},"]":{"ha":444,"x_min":0,"x_max":261,"o":"m 92 563 l 169 563 l 169 485 l 92 485 l 92 563 m 183 563 l 261 563 l 261 485 l 183 485 l 183 563 m 92 471 l 169 471 l 169 393 l 92 393 l 92 471 m 183 471 l 261 471 l 261 393 l 183 393 l 183 471 m 0 379 l 78 379 l 78 301 l 0 301 l 0 379 m 92 379 l 169 379 l 169 301 l 92 301 l 92 379 m 183 379 l 261 379 l 261 301 l 183 301 l 183 379 m 0 931 l 78 931 l 78 853 l 0 853 l 0 931 m 92 931 l 169 931 l 169 853 l 92 853 l 92 931 m 183 931 l 261 931 l 261 853 l 183 853 l 183 931 m 78 839 m 92 839 l 169 839 l 169 761 l 92 761 l 92 839 m 183 839 l 261 839 l 261 761 l 183 761 l 183 839 m 92 747 l 169 747 l 169 669 l 92 669 l 92 747 m 183 747 l 261 747 l 261 669 l 183 669 l 183 747 m 92 656 l 169 656 l 169 578 l 92 578 l 92 656 m 183 656 l 261 656 l 261 578 l 183 578 l 183 656 z "},"a":{"ha":722,"x_min":0,"x_max":629,"o":"m 92 563 l 169 563 l 169 485 l 92 485 l 92 563 m 183 563 l 261 563 l 261 485 l 183 485 l 183 563 m 275 563 l 353 563 l 353 485 l 275 485 l 275 563 m 368 563 l 446 563 l 446 485 l 368 485 l 368 563 m 460 563 l 538 563 l 538 485 l 460 485 l 460 563 m 551 563 l 629 563 l 629 485 l 551 485 l 551 563 m 0 471 l 78 471 l 78 393 l 0 393 l 0 471 m 92 471 l 169 471 l 169 393 l 92 393 l 92 471 m 460 471 l 538 471 l 538 393 l 460 393 l 460 471 m 551 471 l 629 471 l 629 393 l 551 393 l 551 471 m 92 379 l 169 379 l 169 301 l 92 301 l 92 379 m 183 379 l 261 379 l 261 301 l 183 301 l 183 379 m 275 379 l 353 379 l 353 301 l 275 301 l 275 379 m 368 379 l 446 379 l 446 301 l 368 301 l 368 379 m 460 379 l 538 379 l 538 301 l 460 301 l 460 379 m 551 379 l 629 379 l 629 301 l 551 301 l 551 379 m 92 747 l 169 747 l 169 669 l 92 669 l 92 747 m 183 747 l 261 747 l 261 669 l 183 669 l 183 747 m 275 747 l 353 747 l 353 669 l 275 669 l 275 747 m 368 747 l 446 747 l 446 669 l 368 669 l 368 747 m 460 747 l 538 747 l 538 669 l 460 669 l 460 747 m 460 656 l 538 656 l 538 578 l 460 578 l 460 656 m 551 656 l 629 656 l 629 578 l 551 578 l 551 656 z "},"b":{"ha":722,"x_min":0,"x_max":629,"o":"m 0 563 l 78 563 l 78 485 l 0 485 l 0 563 m 92 563 l 169 563 l 169 485 l 92 485 l 92 563 m 460 563 l 538 563 l 538 485 l 460 485 l 460 563 m 551 563 l 629 563 l 629 485 l 551 485 l 551 563 m 0 471 l 78 471 l 78 393 l 0 393 l 0 471 m 92 471 l 169 471 l 169 393 l 92 393 l 92 471 m 460 471 l 538 471 l 538 393 l 460 393 l 460 471 m 551 471 l 629 471 l 629 393 l 551 393 l 551 471 m 0 379 l 78 379 l 78 301 l 0 301 l 0 379 m 92 379 l 169 379 l 169 301 l 92 301 l 92 379 m 183 379 l 261 379 l 261 301 l 183 301 l 183 379 m 275 379 l 353 379 l 353 301 l 275 301 l 275 379 m 368 379 l 446 379 l 446 301 l 368 301 l 368 379 m 460 379 l 538 379 l 538 301 l 460 301 l 460 379 m 0 931 l 78 931 l 78 853 l 0 853 l 0 931 m 92 931 l 169 931 l 169 853 l 92 853 l 92 931 m 0 839 l 78 839 l 78 761 l 0 761 l 0 839 m 92 839 l 169 839 l 169 761 l 92 761 l 92 839 m 0 747 l 78 747 l 78 669 l 0 669 l 0 747 m 92 747 l 169 747 l 169 669 l 92 669 l 92 747 m 183 747 l 261 747 l 261 669 l 183 669 l 183 747 m 275 747 l 353 747 l 353 669 l 275 669 l 275 747 m 368 747 l 446 747 l 446 669 l 368 669 l 368 747 m 460 747 l 538 747 l 538 669 l 460 669 l 460 747 m 0 656 l 78 656 l 78 578 l 0 578 l 0 656 m 92 656 l 169 656 l 169 578 l 92 578 l 92 656 m 460 656 l 538 656 l 538 578 l 460 578 l 460 656 m 551 656 l 629 656 l 629 578 l 551 578 l 551 656 z "},"c":{"ha":722,"x_min":0,"x_max":629,"o":"m 0 563 l 78 563 l 78 485 l 0 485 l 0 563 m 92 563 l 169 563 l 169 485 l 92 485 l 92 563 m 0 471 l 78 471 l 78 393 l 0 393 l 0 471 m 92 471 l 169 471 l 169 393 l 92 393 l 92 471 m 460 471 l 538 471 l 538 393 l 460 393 l 460 471 m 551 471 l 629 471 l 629 393 l 551 393 l 551 471 m 92 379 l 169 379 l 169 301 l 92 301 l 92 379 m 183 379 l 261 379 l 261 301 l 183 301 l 183 379 m 275 379 l 353 379 l 353 301 l 275 301 l 275 379 m 368 379 l 446 379 l 446 301 l 368 301 l 368 379 m 460 379 l 538 379 l 538 301 l 460 301 l 460 379 m 92 747 l 169 747 l 169 669 l 92 669 l 92 747 m 183 747 l 261 747 l 261 669 l 183 669 l 183 747 m 275 747 l 353 747 l 353 669 l 275 669 l 275 747 m 368 747 l 446 747 l 446 669 l 368 669 l 368 747 m 460 747 l 538 747 l 538 669 l 460 669 l 460 747 m 0 656 l 78 656 l 78 578 l 0 578 l 0 656 m 92 656 l 169 656 l 169 578 l 92 578 l 92 656 m 460 656 l 538 656 l 538 578 l 460 578 l 460 656 m 551 656 l 629 656 l 629 578 l 551 578 l 551 656 z "},"d":{"ha":722,"x_min":0,"x_max":629,"o":"m 0 563 l 78 563 l 78 485 l 0 485 l 0 563 m 92 563 l 169 563 l 169 485 l 92 485 l 92 563 m 460 563 l 538 563 l 538 485 l 460 485 l 460 563 m 551 563 l 629 563 l 629 485 l 551 485 l 551 563 m 0 471 l 78 471 l 78 393 l 0 393 l 0 471 m 92 471 l 169 471 l 169 393 l 92 393 l 92 471 m 460 471 l 538 471 l 538 393 l 460 393 l 460 471 m 551 471 l 629 471 l 629 393 l 551 393 l 551 471 m 92 379 l 169 379 l 169 301 l 92 301 l 92 379 m 183 379 l 261 379 l 261 301 l 183 301 l 183 379 m 275 379 l 353 379 l 353 301 l 275 301 l 275 379 m 368 379 l 446 379 l 446 301 l 368 301 l 368 379 m 460 379 l 538 379 l 538 301 l 460 301 l 460 379 m 551 379 l 629 379 l 629 301 l 551 301 l 551 379 m 460 931 l 538 931 l 538 853 l 460 853 l 460 931 m 551 931 l 629 931 l 629 853 l 551 853 l 551 931 m 460 839 l 538 839 l 538 761 l 460 761 l 460 839 m 551 839 l 629 839 l 629 761 l 551 761 l 551 839 m 92 747 l 169 747 l 169 669 l 92 669 l 92 747 m 183 747 l 261 747 l 261 669 l 183 669 l 183 747 m 275 747 l 353 747 l 353 669 l 275 669 l 275 747 m 368 747 l 446 747 l 446 669 l 368 669 l 368 747 m 460 747 l 538 747 l 538 669 l 460 669 l 460 747 m 551 747 l 629 747 l 629 669 l 551 669 l 551 747 m 0 656 l 78 656 l 78 578 l 0 578 l 0 656 m 92 656 l 169 656 l 169 578 l 92 578 l 92 656 m 460 656 l 538 656 l 538 578 l 460 578 l 460 656 m 551 656 l 629 656 l 629 578 l 551 578 l 551 656 z "},"e":{"ha":722,"x_min":0,"x_max":629,"o":"m 0 563 l 78 563 l 78 485 l 0 485 l 0 563 m 92 563 l 169 563 l 169 485 l 92 485 l 92 563 m 183 563 l 261 563 l 261 485 l 183 485 l 183 563 m 275 563 l 353 563 l 353 485 l 275 485 l 275 563 m 368 563 l 446 563 l 446 485 l 368 485 l 368 563 m 460 563 l 538 563 l 538 485 l 460 485 l 460 563 m 551 563 l 629 563 l 629 485 l 551 485 l 551 563 m 0 471 l 78 471 l 78 393 l 0 393 l 0 471 m 92 471 l 169 471 l 169 393 l 92 393 l 92 471 m 92 379 l 169 379 l 169 301 l 92 301 l 92 379 m 183 379 l 261 379 l 261 301 l 183 301 l 183 379 m 275 379 l 353 379 l 353 301 l 275 301 l 275 379 m 368 379 l 446 379 l 446 301 l 368 301 l 368 379 m 460 379 l 538 379 l 538 301 l 460 301 l 460 379 m 92 747 l 169 747 l 169 669 l 92 669 l 92 747 m 183 747 l 261 747 l 261 669 l 183 669 l 183 747 m 275 747 l 353 747 l 353 669 l 275 669 l 275 747 m 368 747 l 446 747 l 446 669 l 368 669 l 368 747 m 460 747 l 538 747 l 538 669 l 460 669 l 460 747 m 0 656 l 78 656 l 78 578 l 0 578 l 0 656 m 92 656 l 169 656 l 169 578 l 92 578 l 92 656 m 460 656 l 538 656 l 538 578 l 460 578 l 460 656 m 551 656 l 629 656 l 629 578 l 551 578 l 551 656 z "},"f":{"ha":544,"x_min":0,"x_max":446,"o":"m 92 563 l 169 563 l 169 485 l 92 485 l 92 563 m 183 563 l 261 563 l 261 485 l 183 485 l 183 563 m 92 471 l 169 471 l 169 393 l 92 393 l 92 471 m 183 471 l 261 471 l 261 393 l 183 393 l 183 471 m 92 379 l 169 379 l 169 301 l 92 301 l 92 379 m 183 379 l 261 379 l 261 301 l 183 301 l 183 379 m 183 931 l 261 931 l 261 853 l 183 853 l 183 931 m 275 931 l 353 931 l 353 853 l 275 853 l 275 931 m 368 931 l 446 931 l 446 853 l 368 853 l 368 931 m 92 839 l 169 839 l 169 761 l 92 761 l 92 839 m 183 839 l 261 839 l 261 761 l 183 761 l 183 839 m 0 747 l 78 747 l 78 669 l 0 669 l 0 747 m 92 747 l 169 747 l 169 669 l 92 669 l 92 747 m 183 747 l 261 747 l 261 669 l 183 669 l 183 747 m 275 747 l 353 747 l 353 669 l 275 669 l 275 747 m 92 656 l 169 656 l 169 578 l 92 578 l 92 656 m 183 656 l 261 656 l 261 578 l 183 578 l 183 656 z "},"g":{"ha":722,"x_min":0,"x_max":629,"o":"m 0 563 l 78 563 l 78 485 l 0 485 l 0 563 m 92 563 l 169 563 l 169 485 l 92 485 l 92 563 m 460 563 l 538 563 l 538 485 l 460 485 l 460 563 m 551 563 l 629 563 l 629 485 l 551 485 l 551 563 m 0 471 l 78 471 l 78 393 l 0 393 l 0 471 m 92 471 l 169 471 l 169 393 l 92 393 l 92 471 m 460 471 l 538 471 l 538 393 l 460 393 l 460 471 m 551 471 l 629 471 l 629 393 l 551 393 l 551 471 m 92 379 l 169 379 l 169 301 l 92 301 l 92 379 m 183 379 l 261 379 l 261 301 l 183 301 l 183 379 m 275 379 l 353 379 l 353 301 l 275 301 l 275 379 m 368 379 l 446 379 l 446 301 l 368 301 l 368 379 m 460 379 l 538 379 l 538 301 l 460 301 l 460 379 m 551 379 l 629 379 l 629 301 l 551 301 l 551 379 m 460 288 l 538 288 l 538 210 l 460 210 l 460 288 m 551 288 l 629 288 l 629 210 l 551 210 l 551 288 m 92 747 l 169 747 l 169 669 l 92 669 l 92 747 m 183 747 l 261 747 l 261 669 l 183 669 l 183 747 m 275 747 l 353 747 l 353 669 l 275 669 l 275 747 m 368 747 l 446 747 l 446 669 l 368 669 l 368 747 m 460 747 l 538 747 l 538 669 l 460 669 l 460 747 m 0 656 l 78 656 l 78 578 l 0 578 l 0 656 m 92 656 l 169 656 l 169 578 l 92 578 l 92 656 m 460 656 l 538 656 l 538 578 l 460 578 l 460 656 m 551 656 l 629 656 l 629 578 l 551 578 l 551 656 m 92 194 l 169 194 l 169 117 l 92 117 l 92 194 m 183 194 l 261 194 l 261 117 l 183 117 l 183 194 m 275 194 l 353 194 l 353 117 l 275 117 l 275 194 m 368 194 l 446 194 l 446 117 l 368 117 l 368 194 m 460 194 l 538 194 l 538 117 l 460 117 l 460 194 z "},"h":{"ha":722,"x_min":0,"x_max":629,"o":"m 0 563 l 78 563 l 78 485 l 0 485 l 0 563 m 92 563 l 169 563 l 169 485 l 92 485 l 92 563 m 460 563 l 538 563 l 538 485 l 460 485 l 460 563 m 551 563 l 629 563 l 629 485 l 551 485 l 551 563 m 0 471 l 78 471 l 78 393 l 0 393 l 0 471 m 92 471 l 169 471 l 169 393 l 92 393 l 92 471 m 460 471 l 538 471 l 538 393 l 460 393 l 460 471 m 551 471 l 629 471 l 629 393 l 551 393 l 551 471 m 0 379 l 78 379 l 78 301 l 0 301 l 0 379 m 92 379 l 169 379 l 169 301 l 92 301 l 92 379 m 460 379 l 538 379 l 538 301 l 460 301 l 460 379 m 551 379 l 629 379 l 629 301 l 551 301 l 551 379 m 0 931 l 78 931 l 78 853 l 0 853 l 0 931 m 92 931 l 169 931 l 169 853 l 92 853 l 92 931 m 0 839 l 78 839 l 78 761 l 0 761 l 0 839 m 92 839 l 169 839 l 169 761 l 92 761 l 92 839 m 0 747 l 78 747 l 78 669 l 0 669 l 0 747 m 92 747 l 169 747 l 169 669 l 92 669 l 92 747 m 183 747 l 261 747 l 261 669 l 183 669 l 183 747 m 275 747 l 353 747 l 353 669 l 275 669 l 275 747 m 368 747 l 446 747 l 446 669 l 368 669 l 368 747 m 460 747 l 538 747 l 538 669 l 460 669 l 460 747 m 0 656 l 78 656 l 78 578 l 0 578 l 0 656 m 92 656 l 169 656 l 169 578 l 92 578 l 92 656 m 460 656 l 538 656 l 538 578 l 460 578 l 460 656 m 551 656 l 629 656 l 629 578 l 551 578 l 551 656 z "},"i":{"ha":261,"x_min":0,"x_max":169,"o":"m 0 563 l 78 563 l 78 485 l 0 485 l 0 563 m 92 563 l 169 563 l 169 485 l 92 485 l 92 563 m 0 471 l 78 471 l 78 393 l 0 393 l 0 471 m 92 471 l 169 471 l 169 393 l 92 393 l 92 471 m 0 379 l 78 379 l 78 301 l 0 301 l 0 379 m 92 379 l 169 379 l 169 301 l 92 301 l 92 379 m 0 931 l 78 931 l 78 853 l 0 853 l 0 931 m 92 931 l 169 931 l 169 853 l 92 853 l 92 931 m 0 747 l 78 747 l 78 669 l 0 669 l 0 747 m 92 747 l 169 747 l 169 669 l 92 669 l 92 747 m 0 656 l 78 656 l 78 578 l 0 578 l 0 656 m 92 656 l 169 656 l 169 578 l 92 578 l 92 656 z "},"j":{"ha":447,"x_min":0,"x_max":353,"o":"m 183 563 l 261 563 l 261 485 l 183 485 l 183 563 m 275 563 l 353 563 l 353 485 l 275 485 l 275 563 m 183 471 l 261 471 l 261 393 l 183 393 l 183 471 m 275 471 l 353 471 l 353 393 l 275 393 l 275 471 m 183 379 l 261 379 l 261 301 l 183 301 l 183 379 m 275 379 l 353 379 l 353 301 l 275 301 l 275 379 m 183 288 l 261 288 l 261 210 l 183 210 l 183 288 m 275 288 l 353 288 l 353 210 l 275 210 l 275 288 m 183 931 l 261 931 l 261 853 l 183 853 l 183 931 m 275 931 l 353 931 l 353 853 l 275 853 l 275 931 m 92 747 l 169 747 l 169 669 l 92 669 l 92 747 m 183 747 l 261 747 l 261 669 l 183 669 l 183 747 m 275 747 l 353 747 l 353 669 l 275 669 l 275 747 m 183 656 l 261 656 l 261 578 l 183 578 l 183 656 m 275 656 l 353 656 l 353 578 l 275 578 l 275 656 m 0 194 l 78 194 l 78 117 l 0 117 l 0 194 m 92 194 l 169 194 l 169 117 l 92 117 l 92 194 m 183 194 l 261 194 l 261 117 l 183 117 l 183 194 z "},"k":{"ha":722,"x_min":0,"x_max":538,"o":"m 0 563 l 78 563 l 78 485 l 0 485 l 0 563 m 92 563 l 169 563 l 169 485 l 92 485 l 92 563 m 183 563 l 261 563 l 261 485 l 183 485 l 183 563 m 275 563 l 353 563 l 353 485 l 275 485 l 275 563 m 0 471 l 78 471 l 78 393 l 0 393 l 0 471 m 92 471 l 169 471 l 169 393 l 92 393 l 92 471 m 275 471 l 353 471 l 353 393 l 275 393 l 275 471 m 368 471 l 446 471 l 446 393 l 368 393 l 368 471 m 0 379 l 78 379 l 78 301 l 0 301 l 0 379 m 92 379 l 169 379 l 169 301 l 92 301 l 92 379 m 368 379 l 446 379 l 446 301 l 368 301 l 368 379 m 460 379 l 538 379 l 538 301 l 460 301 l 460 379 m 0 931 l 78 931 l 78 853 l 0 853 l 0 931 m 92 931 l 169 931 l 169 853 l 92 853 l 92 931 m 0 839 l 78 839 l 78 761 l 0 761 l 0 839 m 92 839 l 169 839 l 169 761 l 92 761 l 92 839 m 0 747 l 78 747 l 78 669 l 0 669 l 0 747 m 92 747 l 169 747 l 169 669 l 92 669 l 92 747 m 368 747 l 446 747 l 446 669 l 368 669 l 368 747 m 460 747 l 538 747 l 538 669 l 460 669 l 460 747 m 0 656 l 78 656 l 78 578 l 0 578 l 0 656 m 92 656 l 169 656 l 169 578 l 92 578 l 92 656 m 275 656 l 353 656 l 353 578 l 275 578 l 275 656 m 368 656 l 446 656 l 446 578 l 368 578 l 368 656 m 460 656 z "},"l":{"ha":261,"x_min":0,"x_max":169,"o":"m 0 563 l 78 563 l 78 485 l 0 485 l 0 563 m 92 563 l 169 563 l 169 485 l 92 485 l 92 563 m 0 471 l 78 471 l 78 393 l 0 393 l 0 471 m 92 471 l 169 471 l 169 393 l 92 393 l 92 471 m 0 379 l 78 379 l 78 301 l 0 301 l 0 379 m 92 379 l 169 379 l 169 301 l 92 301 l 92 379 m 0 931 l 78 931 l 78 853 l 0 853 l 0 931 m 92 931 l 169 931 l 169 853 l 92 853 l 92 931 m 0 839 l 78 839 l 78 761 l 0 761 l 0 839 m 92 839 l 169 839 l 169 761 l 92 761 l 92 839 m 0 747 l 78 747 l 78 669 l 0 669 l 0 747 m 92 747 l 169 747 l 169 669 l 92 669 l 92 747 m 0 656 l 78 656 l 78 578 l 0 578 l 0 656 m 92 656 l 169 656 l 169 578 l 92 578 l 92 656 z "},"m":{"ha":722,"x_min":0,"x_max":629,"o":"m 0 563 l 78 563 l 78 485 l 0 485 l 0 563 m 92 563 l 169 563 l 169 485 l 92 485 l 92 563 m 275 563 l 353 563 l 353 485 l 275 485 l 275 563 m 460 563 l 538 563 l 538 485 l 460 485 l 460 563 m 551 563 l 629 563 l 629 485 l 551 485 l 551 563 m 0 471 l 78 471 l 78 393 l 0 393 l 0 471 m 92 471 l 169 471 l 169 393 l 92 393 l 92 471 m 275 471 l 353 471 l 353 393 l 275 393 l 275 471 m 460 471 l 538 471 l 538 393 l 460 393 l 460 471 m 551 471 l 629 471 l 629 393 l 551 393 l 551 471 m 0 379 l 78 379 l 78 301 l 0 301 l 0 379 m 92 379 l 169 379 l 169 301 l 92 301 l 92 379 m 275 379 l 353 379 l 353 301 l 275 301 l 275 379 m 460 379 l 538 379 l 538 301 l 460 301 l 460 379 m 551 379 l 629 379 l 629 301 l 551 301 l 551 379 m 0 747 l 78 747 l 78 669 l 0 669 l 0 747 m 92 747 l 169 747 l 169 669 l 92 669 l 92 747 m 183 747 l 261 747 l 261 669 l 183 669 l 183 747 m 368 747 l 446 747 l 446 669 l 368 669 l 368 747 m 460 747 l 538 747 l 538 669 l 460 669 l 460 747 m 0 656 l 78 656 l 78 578 l 0 578 l 0 656 m 92 656 l 169 656 l 169 578 l 92 578 l 92 656 m 275 656 l 353 656 l 353 578 l 275 578 l 275 656 m 460 656 l 538 656 l 538 578 l 460 578 l 460 656 m 551 656 l 629 656 l 629 578 l 551 578 l 551 656 z "},"n":{"ha":628,"x_min":0,"x_max":538,"o":"m 0 563 l 78 563 l 78 485 l 0 485 l 0 563 m 92 563 l 169 563 l 169 485 l 92 485 l 92 563 m 368 563 l 446 563 l 446 485 l 368 485 l 368 563 m 460 563 l 538 563 l 538 485 l 460 485 l 460 563 m 0 471 l 78 471 l 78 393 l 0 393 l 0 471 m 92 471 l 169 471 l 169 393 l 92 393 l 92 471 m 368 471 l 446 471 l 446 393 l 368 393 l 368 471 m 460 471 l 538 471 l 538 393 l 460 393 l 460 471 m 0 379 l 78 379 l 78 301 l 0 301 l 0 379 m 92 379 l 169 379 l 169 301 l 92 301 l 92 379 m 368 379 l 446 379 l 446 301 l 368 301 l 368 379 m 460 379 l 538 379 l 538 301 l 460 301 l 460 379 m 0 747 l 78 747 l 78 669 l 0 669 l 0 747 m 92 747 l 169 747 l 169 669 l 92 669 l 92 747 m 183 747 l 261 747 l 261 669 l 183 669 l 183 747 m 275 747 l 353 747 l 353 669 l 275 669 l 275 747 m 368 747 l 446 747 l 446 669 l 368 669 l 368 747 m 0 656 l 78 656 l 78 578 l 0 578 l 0 656 m 92 656 l 169 656 l 169 578 l 92 578 l 92 656 m 368 656 l 446 656 l 446 578 l 368 578 l 368 656 m 460 656 l 538 656 l 538 578 l 460 578 l 460 656 z "},"o":{"ha":722,"x_min":0,"x_max":629,"o":"m 0 563 l 78 563 l 78 485 l 0 485 l 0 563 m 92 563 l 169 563 l 169 485 l 92 485 l 92 563 m 460 563 l 538 563 l 538 485 l 460 485 l 460 563 m 551 563 l 629 563 l 629 485 l 551 485 l 551 563 m 0 471 l 78 471 l 78 393 l 0 393 l 0 471 m 92 471 l 169 471 l 169 393 l 92 393 l 92 471 m 460 471 l 538 471 l 538 393 l 460 393 l 460 471 m 551 471 l 629 471 l 629 393 l 551 393 l 551 471 m 92 379 l 169 379 l 169 301 l 92 301 l 92 379 m 183 379 l 261 379 l 261 301 l 183 301 l 183 379 m 275 379 l 353 379 l 353 301 l 275 301 l 275 379 m 368 379 l 446 379 l 446 301 l 368 301 l 368 379 m 460 379 l 538 379 l 538 301 l 460 301 l 460 379 m 92 747 l 169 747 l 169 669 l 92 669 l 92 747 m 183 747 l 261 747 l 261 669 l 183 669 l 183 747 m 275 747 l 353 747 l 353 669 l 275 669 l 275 747 m 368 747 l 446 747 l 446 669 l 368 669 l 368 747 m 460 747 l 538 747 l 538 669 l 460 669 l 460 747 m 0 656 l 78 656 l 78 578 l 0 578 l 0 656 m 92 656 l 169 656 l 169 578 l 92 578 l 92 656 m 460 656 l 538 656 l 538 578 l 460 578 l 460 656 m 551 656 l 629 656 l 629 578 l 551 578 l 551 656 z "},"p":{"ha":722,"x_min":0,"x_max":629,"o":"m 0 563 l 78 563 l 78 485 l 0 485 l 0 563 m 92 563 l 169 563 l 169 485 l 92 485 l 92 563 m 460 563 l 538 563 l 538 485 l 460 485 l 460 563 m 551 563 l 629 563 l 629 485 l 551 485 l 551 563 m 0 471 l 78 471 l 78 393 l 0 393 l 0 471 m 92 471 l 169 471 l 169 393 l 92 393 l 92 471 m 460 471 l 538 471 l 538 393 l 460 393 l 460 471 m 551 471 l 629 471 l 629 393 l 551 393 l 551 471 m 0 379 l 78 379 l 78 301 l 0 301 l 0 379 m 92 379 l 169 379 l 169 301 l 92 301 l 92 379 m 183 379 l 261 379 l 261 301 l 183 301 l 183 379 m 275 379 l 353 379 l 353 301 l 275 301 l 275 379 m 368 379 l 446 379 l 446 301 l 368 301 l 368 379 m 460 379 l 538 379 l 538 301 l 460 301 l 460 379 m 0 288 l 78 288 l 78 210 l 0 210 l 0 288 m 92 288 l 169 288 l 169 210 l 92 210 l 92 288 m 0 747 l 78 747 l 78 669 l 0 669 l 0 747 m 92 747 l 169 747 l 169 669 l 92 669 l 92 747 m 183 747 l 261 747 l 261 669 l 183 669 l 183 747 m 275 747 l 353 747 l 353 669 l 275 669 l 275 747 m 368 747 l 446 747 l 446 669 l 368 669 l 368 747 m 460 747 l 538 747 l 538 669 l 460 669 l 460 747 m 0 656 l 78 656 l 78 578 l 0 578 l 0 656 m 92 656 l 169 656 l 169 578 l 92 578 l 92 656 m 460 656 l 538 656 l 538 578 l 460 578 l 460 656 m 551 656 l 629 656 l 629 578 l 551 578 l 551 656 m 0 194 l 78 194 l 78 117 l 0 117 l 0 194 m 92 194 l 169 194 l 169 117 l 92 117 l 92 194 z "},"q":{"ha":722,"x_min":0,"x_max":629,"o":"m 0 563 l 78 563 l 78 485 l 0 485 l 0 563 m 92 563 l 169 563 l 169 485 l 92 485 l 92 563 m 460 563 l 538 563 l 538 485 l 460 485 l 460 563 m 551 563 l 629 563 l 629 485 l 551 485 l 551 563 m 0 471 l 78 471 l 78 393 l 0 393 l 0 471 m 92 471 l 169 471 l 169 393 l 92 393 l 92 471 m 460 471 l 538 471 l 538 393 l 460 393 l 460 471 m 551 471 l 629 471 l 629 393 l 551 393 l 551 471 m 92 379 l 169 379 l 169 301 l 92 301 l 92 379 m 183 379 l 261 379 l 261 301 l 183 301 l 183 379 m 275 379 l 353 379 l 353 301 l 275 301 l 275 379 m 368 379 l 446 379 l 446 301 l 368 301 l 368 379 m 460 379 l 538 379 l 538 301 l 460 301 l 460 379 m 551 379 l 629 379 l 629 301 l 551 301 l 551 379 m 460 288 l 538 288 l 538 210 l 460 210 l 460 288 m 551 288 l 629 288 l 629 210 l 551 210 l 551 288 m 92 747 l 169 747 l 169 669 l 92 669 l 92 747 m 183 747 l 261 747 l 261 669 l 183 669 l 183 747 m 275 747 l 353 747 l 353 669 l 275 669 l 275 747 m 368 747 l 446 747 l 446 669 l 368 669 l 368 747 m 460 747 l 538 747 l 538 669 l 460 669 l 460 747 m 551 747 l 629 747 l 629 669 l 551 669 l 551 747 m 0 656 l 78 656 l 78 578 l 0 578 l 0 656 m 92 656 l 169 656 l 169 578 l 92 578 l 92 656 m 460 656 l 538 656 l 538 578 l 460 578 l 460 656 m 551 656 l 629 656 l 629 578 l 551 578 l 551 656 m 460 194 l 538 194 l 538 117 l 460 117 l 460 194 m 551 194 l 629 194 l 629 117 l 551 117 l 551 194 z "},"r":{"ha":539,"x_min":0,"x_max":446,"o":"m 0 563 l 78 563 l 78 485 l 0 485 l 0 563 m 92 563 l 169 563 l 169 485 l 92 485 l 92 563 m 0 471 l 78 471 l 78 393 l 0 393 l 0 471 m 92 471 l 169 471 l 169 393 l 92 393 l 92 471 m 0 379 l 78 379 l 78 301 l 0 301 l 0 379 m 92 379 l 169 379 l 169 301 l 92 301 l 92 379 m 0 747 l 78 747 l 78 669 l 0 669 l 0 747 m 92 747 l 169 747 l 169 669 l 92 669 l 92 747 m 275 747 l 353 747 l 353 669 l 275 669 l 275 747 m 368 747 l 446 747 l 446 669 l 368 669 l 368 747 m 0 656 l 78 656 l 78 578 l 0 578 l 0 656 m 92 656 l 169 656 l 169 578 l 92 578 l 92 656 m 183 656 l 261 656 l 261 578 l 183 578 l 183 656 z "},"s":{"ha":722,"x_min":0,"x_max":629,"o":"m 92 563 l 169 563 l 169 485 l 92 485 l 92 563 m 183 563 l 261 563 l 261 485 l 183 485 l 183 563 m 275 563 l 353 563 l 353 485 l 275 485 l 275 563 m 368 563 l 446 563 l 446 485 l 368 485 l 368 563 m 460 563 l 538 563 l 538 485 l 460 485 l 460 563 m 460 471 l 538 471 l 538 393 l 460 393 l 460 471 m 551 471 l 629 471 l 629 393 l 551 393 l 551 471 m 92 379 l 169 379 l 169 301 l 92 301 l 92 379 m 183 379 l 261 379 l 261 301 l 183 301 l 183 379 m 275 379 l 353 379 l 353 301 l 275 301 l 275 379 m 368 379 l 446 379 l 446 301 l 368 301 l 368 379 m 460 379 l 538 379 l 538 301 l 460 301 l 460 379 m 92 747 l 169 747 l 169 669 l 92 669 l 92 747 m 183 747 l 261 747 l 261 669 l 183 669 l 183 747 m 275 747 l 353 747 l 353 669 l 275 669 l 275 747 m 368 747 l 446 747 l 446 669 l 368 669 l 368 747 m 460 747 l 538 747 l 538 669 l 460 669 l 460 747 m 0 656 l 78 656 l 78 578 l 0 578 l 0 656 m 92 656 l 169 656 l 169 578 l 92 578 l 92 656 z "},"t":{"ha":539,"x_min":0,"x_max":446,"o":"m 92 563 l 169 563 l 169 485 l 92 485 l 92 563 m 183 563 l 261 563 l 261 485 l 183 485 l 183 563 m 92 471 l 169 471 l 169 393 l 92 393 l 92 471 m 183 471 l 261 471 l 261 393 l 183 393 l 183 471 m 183 379 l 261 379 l 261 301 l 183 301 l 183 379 m 275 379 l 353 379 l 353 301 l 275 301 l 275 379 m 368 379 l 446 379 l 446 301 l 368 301 l 368 379 m 92 931 l 169 931 l 169 853 l 92 853 l 92 931 m 183 931 l 261 931 l 261 853 l 183 853 l 183 931 m 92 839 l 169 839 l 169 761 l 92 761 l 92 839 m 183 839 l 261 839 l 261 761 l 183 761 l 183 839 m 0 747 l 78 747 l 78 669 l 0 669 l 0 747 m 92 747 l 169 747 l 169 669 l 92 669 l 92 747 m 183 747 l 261 747 l 261 669 l 183 669 l 183 747 m 275 747 l 353 747 l 353 669 l 275 669 l 275 747 m 92 656 l 169 656 l 169 578 l 92 578 l 92 656 m 183 656 l 261 656 l 261 578 l 183 578 l 183 656 z "},"u":{"ha":722,"x_min":0,"x_max":629,"o":"m 0 563 l 78 563 l 78 485 l 0 485 l 0 563 m 92 563 l 169 563 l 169 485 l 92 485 l 92 563 m 460 563 l 538 563 l 538 485 l 460 485 l 460 563 m 551 563 l 629 563 l 629 485 l 551 485 l 551 563 m 0 471 l 78 471 l 78 393 l 0 393 l 0 471 m 92 471 l 169 471 l 169 393 l 92 393 l 92 471 m 460 471 l 538 471 l 538 393 l 460 393 l 460 471 m 551 471 l 629 471 l 629 393 l 551 393 l 551 471 m 92 379 l 169 379 l 169 301 l 92 301 l 92 379 m 183 379 l 261 379 l 261 301 l 183 301 l 183 379 m 275 379 l 353 379 l 353 301 l 275 301 l 275 379 m 368 379 l 446 379 l 446 301 l 368 301 l 368 379 m 460 379 l 538 379 l 538 301 l 460 301 l 460 379 m 551 379 l 629 379 l 629 301 l 551 301 l 551 379 m 0 747 l 78 747 l 78 669 l 0 669 l 0 747 m 92 747 l 169 747 l 169 669 l 92 669 l 92 747 m 460 747 l 538 747 l 538 669 l 460 669 l 460 747 m 551 747 l 629 747 l 629 669 l 551 669 l 551 747 m 0 656 l 78 656 l 78 578 l 0 578 l 0 656 m 92 656 l 169 656 l 169 578 l 92 578 l 92 656 m 460 656 l 538 656 l 538 578 l 460 578 l 460 656 m 551 656 l 629 656 l 629 578 l 551 578 l 551 656 z "},"v":{"ha":722,"x_min":0,"x_max":629,"o":"m 0 563 l 78 563 l 78 485 l 0 485 l 0 563 m 92 563 l 169 563 l 169 485 l 92 485 l 92 563 m 460 563 l 538 563 l 538 485 l 460 485 l 460 563 m 551 563 l 629 563 l 629 485 l 551 485 l 551 563 m 92 471 l 169 471 l 169 393 l 92 393 l 92 471 m 183 471 l 261 471 l 261 393 l 183 393 l 183 471 m 368 471 l 446 471 l 446 393 l 368 393 l 368 471 m 460 471 l 538 471 l 538 393 l 460 393 l 460 471 m 183 379 l 261 379 l 261 301 l 183 301 l 183 379 m 275 379 l 353 379 l 353 301 l 275 301 l 275 379 m 368 379 l 446 379 l 446 301 l 368 301 l 368 379 m 0 747 l 78 747 l 78 669 l 0 669 l 0 747 m 92 747 l 169 747 l 169 669 l 92 669 l 92 747 m 460 747 l 538 747 l 538 669 l 460 669 l 460 747 m 551 747 l 629 747 l 629 669 l 551 669 l 551 747 m 0 656 l 78 656 l 78 578 l 0 578 l 0 656 m 92 656 l 169 656 l 169 578 l 92 578 l 92 656 m 460 656 l 538 656 l 538 578 l 460 578 l 460 656 m 551 656 l 629 656 l 629 578 l 551 578 l 551 656 z "},"w":{"ha":722,"x_min":0,"x_max":629,"o":"m 0 563 l 78 563 l 78 485 l 0 485 l 0 563 m 92 563 l 169 563 l 169 485 l 92 485 l 92 563 m 460 563 l 538 563 l 538 485 l 460 485 l 460 563 m 551 563 l 629 563 l 629 485 l 551 485 l 551 563 m 0 471 l 78 471 l 78 393 l 0 393 l 0 471 m 92 471 l 169 471 l 169 393 l 92 393 l 92 471 m 275 471 l 353 471 l 353 393 l 275 393 l 275 471 m 460 471 l 538 471 l 538 393 l 460 393 l 460 471 m 551 471 l 629 471 l 629 393 l 551 393 l 551 471 m 92 379 l 169 379 l 169 301 l 92 301 l 92 379 m 183 379 l 261 379 l 261 301 l 183 301 l 183 379 m 368 379 l 446 379 l 446 301 l 368 301 l 368 379 m 460 379 l 538 379 l 538 301 l 460 301 l 460 379 m 0 747 l 78 747 l 78 669 l 0 669 l 0 747 m 92 747 l 169 747 l 169 669 l 92 669 l 92 747 m 460 747 l 538 747 l 538 669 l 460 669 l 460 747 m 551 747 l 629 747 l 629 669 l 551 669 l 551 747 m 0 656 l 78 656 l 78 578 l 0 578 l 0 656 m 92 656 l 169 656 l 169 578 l 92 578 l 92 656 m 460 656 l 538 656 l 538 578 l 460 578 l 460 656 m 551 656 l 629 656 l 629 578 l 551 578 l 551 656 z "},"x":{"ha":722,"x_min":0,"x_max":629,"o":"m 183 563 l 261 563 l 261 485 l 183 485 l 183 563 m 275 563 l 353 563 l 353 485 l 275 485 l 275 563 m 368 563 l 446 563 l 446 485 l 368 485 l 368 563 m 92 471 l 169 471 l 169 393 l 92 393 l 92 471 m 183 471 l 261 471 l 261 393 l 183 393 l 183 471 m 368 471 l 446 471 l 446 393 l 368 393 l 368 471 m 460 471 l 538 471 l 538 393 l 460 393 l 460 471 m 0 379 l 78 379 l 78 301 l 0 301 l 0 379 m 92 379 l 169 379 l 169 301 l 92 301 l 92 379 m 460 379 l 538 379 l 538 301 l 460 301 l 460 379 m 551 379 l 629 379 l 629 301 l 551 301 l 551 379 m 0 747 l 78 747 l 78 669 l 0 669 l 0 747 m 92 747 l 169 747 l 169 669 l 92 669 l 92 747 m 460 747 l 538 747 l 538 669 l 460 669 l 460 747 m 551 747 l 629 747 l 629 669 l 551 669 l 551 747 m 92 656 l 169 656 l 169 578 l 92 578 l 92 656 m 183 656 l 261 656 l 261 578 l 183 578 l 183 656 m 368 656 l 446 656 l 446 578 l 368 578 l 368 656 m 460 656 l 538 656 l 538 578 l 460 578 l 460 656 z "},"y":{"ha":722,"x_min":0,"x_max":629,"o":"m 0 563 l 78 563 l 78 485 l 0 485 l 0 563 m 92 563 l 169 563 l 169 485 l 92 485 l 92 563 m 460 563 l 538 563 l 538 485 l 460 485 l 460 563 m 551 563 l 629 563 l 629 485 l 551 485 l 551 563 m 0 471 l 78 471 l 78 393 l 0 393 l 0 471 m 92 471 l 169 471 l 169 393 l 92 393 l 92 471 m 460 471 l 538 471 l 538 393 l 460 393 l 460 471 m 551 471 l 629 471 l 629 393 l 551 393 l 551 471 m 92 379 l 169 379 l 169 301 l 92 301 l 92 379 m 183 379 l 261 379 l 261 301 l 183 301 l 183 379 m 275 379 l 353 379 l 353 301 l 275 301 l 275 379 m 368 379 l 446 379 l 446 301 l 368 301 l 368 379 m 460 379 l 538 379 l 538 301 l 460 301 l 460 379 m 551 379 l 629 379 l 629 301 l 551 301 l 551 379 m 460 288 l 538 288 l 538 210 l 460 210 l 460 288 m 551 288 l 629 288 l 629 210 l 551 210 l 551 288 m 0 747 l 78 747 l 78 669 l 0 669 l 0 747 m 92 747 l 169 747 l 169 669 l 92 669 l 92 747 m 460 747 l 538 747 l 538 669 l 460 669 l 460 747 m 551 747 l 629 747 l 629 669 l 551 669 l 551 747 m 0 656 l 78 656 l 78 578 l 0 578 l 0 656 m 92 656 l 169 656 l 169 578 l 92 578 l 92 656 m 460 656 l 538 656 l 538 578 l 460 578 l 460 656 m 551 656 l 629 656 l 629 578 l 551 578 l 551 656 m 92 194 l 169 194 l 169 117 l 92 117 l 92 194 m 183 194 l 261 194 l 261 117 l 183 117 l 183 194 m 275 194 l 353 194 l 353 117 l 275 117 l 275 194 m 368 194 l 446 194 l 446 117 l 368 117 l 368 194 m 460 194 l 538 194 l 538 117 l 460 117 l 460 194 z "},"z":{"ha":722,"x_min":0,"x_max":629,"o":"m 183 563 l 261 563 l 261 485 l 183 485 l 183 563 m 275 563 l 353 563 l 353 485 l 275 485 l 275 563 m 368 563 l 446 563 l 446 485 l 368 485 l 368 563 m 92 471 l 169 471 l 169 393 l 92 393 l 92 471 m 183 471 l 261 471 l 261 393 l 183 393 l 183 471 m 0 379 l 78 379 l 78 301 l 0 301 l 0 379 m 92 379 l 169 379 l 169 301 l 92 301 l 92 379 m 183 379 l 261 379 l 261 301 l 183 301 l 183 379 m 275 379 l 353 379 l 353 301 l 275 301 l 275 379 m 368 379 l 446 379 l 446 301 l 368 301 l 368 379 m 460 379 l 538 379 l 538 301 l 460 301 l 460 379 m 551 379 l 629 379 l 629 301 l 551 301 l 551 379 m 0 747 l 78 747 l 78 669 l 0 669 l 0 747 m 92 747 l 169 747 l 169 669 l 92 669 l 92 747 m 183 747 l 261 747 l 261 669 l 183 669 l 183 747 m 275 747 l 353 747 l 353 669 l 275 669 l 275 747 m 368 747 l 446 747 l 446 669 l 368 669 l 368 747 m 460 747 l 538 747 l 538 669 l 460 669 l 460 747 m 551 747 l 629 747 l 629 669 l 551 669 l 551 747 m 368 656 l 446 656 l 446 578 l 368 578 l 368 656 m 460 656 l 538 656 l 538 578 l 460 578 l 460 656 z "}}}
